<svg width="54" height="110" viewBox="0 0 54 110" fill="none" xmlns="http://www.w3.org/2000/svg">
<path d="M6.78229 98.4279C6.78229 94.6801 3.74474 91.64 0 91.64V87.8375C3.74474 87.8375 6.78229 84.7974 6.78229 81.0495C6.78229 77.3016 3.74474 74.2615 0 74.2615V70.459C3.74474 70.459 6.78229 67.4189 6.78229 63.6711C6.78229 59.9232 3.74474 56.8831 0 56.8831V53.083C3.74474 53.083 6.78229 50.0429 6.78229 46.295C6.78229 42.5471 3.74474 39.507 0 39.507V35.7045C3.74474 35.7045 6.78229 32.6644 6.78229 28.9166C6.78229 25.1687 3.74474 22.1286 0 22.1286V18.3261C3.74474 18.3261 6.78229 15.286 6.78229 11.5381C6.78229 7.78788 3.74711 4.75015 0 4.75015V0H41.8874C41.8874 6.15145 46.8686 11.1367 53.0149 11.1367V98.8293C46.8686 98.8293 41.8874 103.815 41.8874 109.966H0V105.216C3.74711 105.216 6.78229 102.178 6.78229 98.4279Z" fill="#B38835"/>
</svg>
