<svg width="19" height="19" viewBox="0 0 19 19" fill="none" xmlns="http://www.w3.org/2000/svg">
<path d="M9.5 4.3418C12.3442 4.3418 14.6582 6.65575 14.6582 9.5C14.6582 12.3443 12.3442 14.6582 9.5 14.6582C6.65575 14.6582 4.34179 12.3443 4.34179 9.5C4.34179 6.65575 6.65575 4.3418 9.5 4.3418ZM9.5 13.5449C11.7304 13.5449 13.5449 11.7304 13.5449 9.5C13.5449 7.26962 11.7304 5.45508 9.5 5.45508C7.26961 5.45508 5.45507 7.26962 5.45507 9.5C5.45507 11.7304 7.26961 13.5449 9.5 13.5449Z" fill="#333333"/>
<path d="M9.5 3.02972C9.19259 3.02972 8.94336 2.7805 8.94336 2.47308V0.556641C8.94336 0.249227 9.19259 0 9.5 0C9.80741 0 10.0566 0.249227 10.0566 0.556641V2.47308C10.0566 2.7805 9.80741 3.02972 9.5 3.02972Z" fill="#333333"/>
<path d="M0.556215 8.94336H2.47266C2.78007 8.94336 3.0293 9.19259 3.0293 9.5C3.0293 9.80741 2.78007 10.0566 2.47266 10.0566H0.556215C0.248801 10.0566 -0.000426054 9.80741 -0.000426054 9.5C-0.000426054 9.19259 0.248801 8.94336 0.556215 8.94336Z" fill="#333333"/>
<path d="M9.5 15.9702C9.80741 15.9702 10.0566 16.2194 10.0566 16.5269V18.4433C10.0566 18.7507 9.80741 18.9999 9.5 18.9999C9.19259 18.9999 8.94336 18.7507 8.94336 18.4433V16.5269C8.94336 16.2194 9.19259 15.9702 9.5 15.9702Z" fill="#333333"/>
<path d="M15.9703 9.5C15.9703 9.19259 16.2195 8.94336 16.5269 8.94336H18.4434C18.7508 8.94336 19 9.19259 19 9.5C19 9.80741 18.7508 10.0566 18.4434 10.0566H16.5269C16.2195 10.0566 15.9703 9.80741 15.9703 9.5Z" fill="#333333"/>
<path d="M4.53123 5.08805C4.38877 5.08805 4.2463 5.03373 4.13765 4.92499L2.78252 3.56987C2.56514 3.35248 2.56514 3.00006 2.78252 2.78267C2.99987 2.56528 3.35234 2.56528 3.56973 2.78267L4.92485 4.13779C5.14224 4.35518 5.14224 4.70761 4.92485 4.92499C4.81612 5.03373 4.67366 5.08805 4.53123 5.08805Z" fill="#333333"/>
<path d="M4.13765 14.0751C4.355 13.8578 4.70746 13.8578 4.92485 14.0751C5.14224 14.2925 5.14224 14.6449 4.92485 14.8623L3.56969 16.2174C3.461 16.3261 3.31853 16.3805 3.17611 16.3805C3.03368 16.3805 2.89118 16.3261 2.78252 16.2174C2.56514 16 2.56514 15.6476 2.78252 15.4302L4.13765 14.0751Z" fill="#333333"/>
<path d="M14.8627 14.0751L16.2178 15.4303C16.4352 15.6477 16.4352 16.0001 16.2178 16.2175C16.1091 16.3262 15.9667 16.3805 15.8242 16.3805C15.6818 16.3805 15.5393 16.3262 15.4307 16.2175L14.0755 14.8624C13.8581 14.645 13.8581 14.2925 14.0755 14.0751C14.2928 13.8578 14.6453 13.8578 14.8627 14.0751Z" fill="#333333"/>
<path d="M14.8627 4.92499C14.754 5.03369 14.6115 5.08805 14.4691 5.08805C14.3267 5.08805 14.1841 5.03373 14.0755 4.92499C13.8581 4.70761 13.8581 4.35518 14.0755 4.13779L15.4306 2.78267C15.648 2.56528 16.0004 2.56528 16.2178 2.78267C16.4352 3.00006 16.4352 3.35248 16.2178 3.56987L14.8627 4.92499Z" fill="#333333"/>
<path d="M7.01721 3.52508C6.94733 3.55409 6.875 3.56783 6.80379 3.56783C6.58563 3.56783 6.37852 3.43872 6.28957 3.22464L5.55413 1.45496C5.43616 1.17108 5.57065 0.845294 5.85453 0.727324C6.13838 0.60939 6.46417 0.7438 6.58217 1.02772L7.31761 2.7974C7.43554 3.08132 7.30106 3.4071 7.01721 3.52508Z" fill="#333333"/>
<path d="M1.0273 12.4183L2.79698 11.6829C3.0809 11.5649 3.40665 11.6994 3.52462 11.9833C3.64259 12.2672 3.50811 12.593 3.22422 12.7109L1.45454 13.4464C1.38467 13.4754 1.31234 13.4891 1.24113 13.4891C1.02296 13.4891 0.815855 13.36 0.726903 13.1459C0.608932 12.8621 0.743417 12.5363 1.0273 12.4183Z" fill="#333333"/>
<path d="M11.9834 15.4749C12.2673 15.3569 12.5931 15.4914 12.7111 15.7753L13.4465 17.545C13.5645 17.8288 13.43 18.1546 13.1461 18.2726C13.0762 18.3016 13.0039 18.3153 12.9327 18.3153C12.7145 18.3153 12.5074 18.1862 12.4185 17.9722L11.683 16.2025C11.5651 15.9186 11.6996 15.5929 11.9834 15.4749Z" fill="#333333"/>
<path d="M17.9723 6.58201L16.2026 7.31744C16.1327 7.34646 16.0604 7.36019 15.9892 7.36019C15.771 7.36019 15.5639 7.23109 15.475 7.017C15.357 6.73311 15.4915 6.40733 15.7754 6.28936L17.545 5.55396C17.8289 5.43607 18.1547 5.57048 18.2727 5.85436C18.3906 6.13825 18.2562 6.46403 17.9723 6.58201Z" fill="#333333"/>
<path d="M3.51926 7.03079C3.43061 7.24547 3.22317 7.37517 3.00452 7.37517C2.93375 7.37517 2.86179 7.36158 2.79233 7.3329L1.02095 6.60158C0.7368 6.48428 0.601499 6.15883 0.718802 5.87465C0.836142 5.59046 1.16166 5.45524 1.44574 5.57254L3.21712 6.30386C3.5013 6.4212 3.63657 6.74664 3.51926 7.03079Z" fill="#333333"/>
<path d="M6.30366 15.7828C6.42096 15.4987 6.74648 15.3635 7.03059 15.4807C7.31478 15.598 7.45004 15.9235 7.33274 16.2077L6.60142 17.9791C6.51277 18.1938 6.30533 18.3235 6.08668 18.3235C6.01591 18.3235 5.94396 18.3099 5.87449 18.2812C5.5903 18.1639 5.45504 17.8384 5.57234 17.5543L6.30366 15.7828Z" fill="#333333"/>
<path d="M15.4805 11.9689C15.5978 11.6848 15.9232 11.5494 16.2074 11.6668L17.9788 12.3981C18.263 12.5154 18.3983 12.8409 18.281 13.1251C18.1923 13.3397 17.9849 13.4694 17.7662 13.4694C17.6955 13.4694 17.6235 13.4558 17.5541 13.4272L15.7826 12.6958C15.4984 12.5785 15.3632 12.2531 15.4805 11.9689Z" fill="#333333"/>
<path d="M12.6952 3.21738C12.6065 3.43206 12.3991 3.56175 12.1804 3.56175C12.1097 3.56175 12.0377 3.54817 11.9682 3.51949C11.6841 3.40218 11.5488 3.07673 11.6661 2.79255L12.3974 1.02113C12.5147 0.736948 12.8403 0.601722 13.1243 0.719024C13.4085 0.836327 13.5438 1.16181 13.4265 1.44596L12.6952 3.21738Z" fill="#333333"/>
<circle cx="9.17215" cy="9.17264" r="4.58621" fill="#333333"/>
</svg>
