<svg width="136" height="110" viewBox="0 0 136 110" fill="none" xmlns="http://www.w3.org/2000/svg">
<g clip-path="url(#clip0_8410_981)">
<path fill-rule="evenodd" clip-rule="evenodd" d="M71.9746 1.65866L103.079 32.7634C105.319 35.0029 105.319 38.7355 103.079 40.9751L71.9746 71.9968C69.735 74.2364 66.0025 74.2364 63.7629 71.9968L32.6582 40.9751C30.4186 38.7355 30.4186 35.0029 32.6582 32.7634L63.7629 1.65866C66.0025 -0.580881 69.6521 -0.580881 71.9746 1.65866Z" fill="white"/>
<path fill-rule="evenodd" clip-rule="evenodd" d="M53.5601 11.9438H71.9741C76.6191 11.9438 80.8493 14.1834 83.9184 17.7501C86.8215 21.2338 88.6463 25.8788 88.6463 31.1044C88.6463 36.247 86.8215 40.9749 83.9184 44.4587C80.8493 48.0254 76.6191 50.2649 71.9741 50.2649H60.6105V44.4587H71.8912C74.7943 44.4587 77.4486 43.0486 79.4393 40.7261C81.5129 38.3207 82.8401 34.9199 82.8401 31.1044C82.8401 27.3718 81.5129 23.971 79.4393 21.4826C77.4486 19.1601 74.7943 17.7501 71.8912 17.7501H47.7539L53.5601 11.9438Z" fill="#393939"/>
<path fill-rule="evenodd" clip-rule="evenodd" d="M47.9189 56.1543V35.0031C47.9189 33.2613 48.6655 31.6853 49.7438 30.524C50.905 29.3628 52.481 28.6992 54.2228 28.6992H70.3973V34.5054H54.1399C53.974 34.5054 53.8911 34.5884 53.8081 34.6713C53.7252 34.7543 53.6422 34.9202 53.6422 35.0031V61.9606L47.9189 56.1543Z" fill="#393939"/>
<path fill-rule="evenodd" clip-rule="evenodd" d="M79.0249 64.9466L69.1543 47.8597L74.1311 45.0396L83.1722 60.7163L79.0249 64.9466Z" fill="#393939"/>
<path fill-rule="evenodd" clip-rule="evenodd" d="M88.5638 31.0215C88.5638 36.1642 86.7389 40.8921 83.8358 44.3758C81.8451 46.6983 79.4397 48.4402 76.6195 49.3526L83.1723 60.7162L102.996 40.8921C105.236 38.6526 105.236 34.92 102.996 32.6805L71.9746 1.65866C69.735 -0.580882 66.0024 -0.580882 63.7629 1.65866L53.5605 11.944H71.9746C76.6195 11.944 80.8498 14.1835 83.9188 17.7502C86.7389 21.151 88.5638 25.8789 88.5638 31.0215Z" fill="#B38835"/>
</g>
<path d="M5.004 90.4402C5.436 91.4962 5.712 92.6122 5.832 93.7882C6.456 92.8042 7.296 92.0002 8.352 91.3762C9.408 90.7522 10.524 90.4402 11.7 90.4402L10.98 93.6082C9.828 93.6082 8.844 93.9082 8.028 94.5082C7.236 95.1082 6.528 95.8642 5.904 96.7762V108.656H2.916V95.6962C2.916 95.2162 2.88 94.6762 2.808 94.0762C2.736 93.4762 2.616 92.8882 2.448 92.3122C2.28 91.7362 2.052 91.2442 1.764 90.8362L5.004 90.4402ZM22.2708 90.3322C23.7108 90.3322 24.9228 90.6322 25.9068 91.2322C26.8908 91.8082 27.6228 92.6242 28.1028 93.6802C28.6068 94.7122 28.8588 95.9242 28.8588 97.3162C28.8588 97.6522 28.8348 98.0002 28.7868 98.3602C28.7628 98.6962 28.7268 99.0562 28.6788 99.4402H17.3028C17.3028 101.72 17.8068 103.484 18.8148 104.732C19.8228 105.98 21.1668 106.604 22.8468 106.604C23.5428 106.604 24.2628 106.496 25.0068 106.28C25.7748 106.064 26.5668 105.74 27.3828 105.308L28.4988 107.108C27.6588 107.78 26.7108 108.284 25.6548 108.62C24.5988 108.956 23.5308 109.124 22.4508 109.124C21.0348 109.124 19.7988 108.872 18.7428 108.368C17.7108 107.84 16.8468 107.144 16.1508 106.28C15.4788 105.392 14.9748 104.396 14.6388 103.292C14.3028 102.188 14.1348 101.06 14.1348 99.9082C14.1348 98.7082 14.3028 97.5442 14.6388 96.4162C14.9748 95.2882 15.4788 94.2682 16.1508 93.3562C16.8468 92.4202 17.6988 91.6882 18.7068 91.1602C19.7148 90.6082 20.9028 90.3322 22.2708 90.3322ZM21.9828 92.6002C21.1668 92.6002 20.4468 92.8282 19.8228 93.2842C19.1988 93.7402 18.6948 94.3282 18.3108 95.0482C17.9268 95.7442 17.6628 96.4642 17.5188 97.2082H25.7268C25.7508 96.2002 25.6068 95.3602 25.2948 94.6882C25.0068 93.9922 24.5748 93.4762 23.9988 93.1402C23.4468 92.7802 22.7748 92.6002 21.9828 92.6002ZM39.1238 90.3322C39.9398 90.3322 40.7438 90.4402 41.5358 90.6562C42.3518 90.8482 43.0958 91.1602 43.7678 91.5922L42.7238 93.8962C42.1958 93.4642 41.6078 93.1402 40.9598 92.9242C40.3118 92.7082 39.6758 92.6002 39.0518 92.6002C38.1638 92.6002 37.3838 92.8042 36.7118 93.2122C36.0638 93.6202 35.7398 94.2322 35.7398 95.0482C35.7398 95.6242 35.8718 96.1042 36.1358 96.4882C36.4238 96.8722 36.7958 97.1962 37.2518 97.4602C37.7078 97.7242 38.1998 97.9882 38.7278 98.2522C39.3278 98.5402 39.9278 98.8402 40.5278 99.1523C41.1518 99.4402 41.7158 99.8002 42.2198 100.232C42.7478 100.64 43.1678 101.144 43.4798 101.744C43.8158 102.32 43.9838 103.04 43.9838 103.904C43.9838 105.104 43.6838 106.1 43.0838 106.892C42.5078 107.66 41.7398 108.224 40.7798 108.584C39.8438 108.944 38.8238 109.124 37.7198 109.124C36.7598 109.124 35.7998 108.992 34.8398 108.728C33.8798 108.464 32.9918 108.092 32.1758 107.612L33.4358 105.416C34.0118 105.848 34.6598 106.196 35.3798 106.46C36.0998 106.724 36.7958 106.856 37.4678 106.856C38.3798 106.856 39.1718 106.64 39.8438 106.208C40.5398 105.776 40.8878 105.128 40.8878 104.264C40.8878 103.664 40.6958 103.172 40.3118 102.788C39.9518 102.38 39.4838 102.02 38.9078 101.708C38.3318 101.396 37.7318 101.096 37.1078 100.808C36.3878 100.448 35.6798 100.064 34.9838 99.6562C34.3118 99.2242 33.7598 98.6842 33.3278 98.0362C32.8958 97.3882 32.6798 96.5602 32.6798 95.5522C32.6798 94.4002 32.9798 93.4402 33.5798 92.6722C34.2038 91.9042 35.0078 91.3282 35.9918 90.9442C36.9758 90.5362 38.0198 90.3322 39.1238 90.3322ZM55.5286 90.3322C56.9686 90.3322 58.1806 90.6322 59.1646 91.2322C60.1486 91.8082 60.8806 92.6242 61.3606 93.6802C61.8646 94.7122 62.1166 95.9242 62.1166 97.3162C62.1166 97.6522 62.0926 98.0002 62.0446 98.3602C62.0206 98.6962 61.9846 99.0562 61.9366 99.4402H50.5606C50.5606 101.72 51.0646 103.484 52.0726 104.732C53.0806 105.98 54.4246 106.604 56.1046 106.604C56.8006 106.604 57.5206 106.496 58.2646 106.28C59.0326 106.064 59.8246 105.74 60.6406 105.308L61.7566 107.108C60.9166 107.78 59.9686 108.284 58.9126 108.62C57.8566 108.956 56.7886 109.124 55.7086 109.124C54.2926 109.124 53.0566 108.872 52.0006 108.368C50.9686 107.84 50.1046 107.144 49.4086 106.28C48.7366 105.392 48.2326 104.396 47.8966 103.292C47.5606 102.188 47.3926 101.06 47.3926 99.9082C47.3926 98.7082 47.5606 97.5442 47.8966 96.4162C48.2326 95.2882 48.7366 94.2682 49.4086 93.3562C50.1046 92.4202 50.9566 91.6882 51.9646 91.1602C52.9726 90.6082 54.1606 90.3322 55.5286 90.3322ZM55.2406 92.6002C54.4246 92.6002 53.7046 92.8282 53.0806 93.2842C52.4566 93.7402 51.9526 94.3282 51.5686 95.0482C51.1846 95.7442 50.9206 96.4642 50.7766 97.2082H58.9846C59.0086 96.2002 58.8646 95.3602 58.5526 94.6882C58.2646 93.9922 57.8326 93.4762 57.2566 93.1402C56.7046 92.7802 56.0326 92.6002 55.2406 92.6002ZM68.6017 90.4402C69.0337 91.4962 69.3097 92.6122 69.4297 93.7882C70.0537 92.8042 70.8937 92.0002 71.9497 91.3762C73.0057 90.7522 74.1217 90.4402 75.2977 90.4402L74.5777 93.6082C73.4257 93.6082 72.4417 93.9082 71.6257 94.5082C70.8337 95.1082 70.1257 95.8642 69.5017 96.7762V108.656H66.5137V95.6962C66.5137 95.2162 66.4777 94.6762 66.4057 94.0762C66.3337 93.4762 66.2137 92.8882 66.0457 92.3122C65.8777 91.7362 65.6497 91.2442 65.3617 90.8362L68.6017 90.4402ZM80.6625 90.7642L84.5505 101.852C84.7185 102.308 84.8745 102.752 85.0185 103.184C85.1625 103.616 85.3065 104.132 85.4505 104.732C85.5945 104.156 85.7265 103.664 85.8465 103.256C85.9905 102.824 86.1345 102.404 86.2785 101.996L90.2025 90.7642H93.0105L86.6025 108.872H83.8665L77.4945 90.7642H80.6625ZM100.105 84.7522C100.105 85.3522 99.8893 85.8682 99.4573 86.3002C99.0493 86.7322 98.5333 86.9482 97.9093 86.9482C97.3093 86.9482 96.7933 86.7322 96.3613 86.3002C95.9533 85.8682 95.7493 85.3522 95.7493 84.7522C95.7493 84.1522 95.9533 83.6362 96.3613 83.2042C96.7933 82.7722 97.3093 82.5562 97.9093 82.5562C98.5093 82.5562 99.0253 82.7722 99.4573 83.2042C99.8893 83.6362 100.105 84.1522 100.105 84.7522ZM99.4573 90.7642V108.656H96.4693V92.8882L96.0373 90.7642H99.4573ZM107.484 90.5122C107.652 90.8962 107.796 91.3042 107.916 91.7362C108.036 92.1682 108.12 92.5882 108.168 92.9962C108.6 92.5642 109.092 92.1442 109.644 91.7362C110.22 91.3282 110.832 90.9922 111.48 90.7282C112.128 90.4642 112.764 90.3322 113.388 90.3322C114.54 90.3322 115.524 90.5722 116.34 91.0522C117.156 91.5082 117.816 92.2642 118.32 93.3202C118.8 92.8402 119.34 92.3722 119.94 91.9162C120.54 91.4602 121.176 91.0882 121.848 90.8002C122.52 90.4882 123.204 90.3322 123.9 90.3322C125.22 90.3322 126.276 90.6082 127.068 91.1602C127.884 91.7122 128.472 92.4682 128.832 93.4282C129.192 94.3642 129.372 95.4562 129.372 96.7042V108.656H126.384V97.6762C126.384 97.1242 126.348 96.5842 126.276 96.0562C126.228 95.5042 126.108 95.0002 125.916 94.5442C125.724 94.0642 125.424 93.6922 125.016 93.4282C124.632 93.1402 124.092 92.9962 123.396 92.9962C122.556 92.9962 121.728 93.2722 120.912 93.8242C120.096 94.3522 119.412 94.8922 118.86 95.4442V108.656H115.872V97.6762C115.872 97.1242 115.848 96.5722 115.8 96.0202C115.752 95.4682 115.632 94.9642 115.44 94.5082C115.248 94.0522 114.948 93.6922 114.54 93.4282C114.132 93.1402 113.58 92.9962 112.884 92.9962C112.356 92.9962 111.816 93.1282 111.264 93.3922C110.712 93.6322 110.184 93.9442 109.68 94.3282C109.176 94.6882 108.732 95.0362 108.348 95.3722V108.656H105.36V95.6602C105.36 95.1562 105.312 94.6162 105.216 94.0402C105.144 93.4642 105.024 92.9002 104.856 92.3482C104.688 91.7962 104.472 91.3042 104.208 90.8722L107.484 90.5122Z" fill="white"/>
<defs>
<clipPath id="clip0_8410_981">
<rect width="73.656" height="73.656" fill="white" transform="translate(31)"/>
</clipPath>
</defs>
</svg>
