<svg width="74" height="74" viewBox="0 0 74 74" fill="none" xmlns="http://www.w3.org/2000/svg">
<g clip-path="url(#clip0_8410_982)">
<path fill-rule="evenodd" clip-rule="evenodd" d="M40.9746 1.65866L72.0793 32.7634C74.3189 35.0029 74.3189 38.7355 72.0793 40.9751L40.9746 71.9968C38.735 74.2364 35.0025 74.2364 32.7629 71.9968L1.65817 40.9751C-0.58137 38.7355 -0.58137 35.0029 1.65817 32.7634L32.7629 1.65866C35.0025 -0.580881 38.6521 -0.580881 40.9746 1.65866Z" fill="white"/>
<path fill-rule="evenodd" clip-rule="evenodd" d="M22.5601 11.9438H40.9741C45.6191 11.9438 49.8493 14.1834 52.9183 17.7501C55.8215 21.2338 57.6463 25.8788 57.6463 31.1044C57.6463 36.247 55.8215 40.9749 52.9183 44.4587C49.8493 48.0254 45.6191 50.2649 40.9741 50.2649H29.6105V44.4587H40.8912C43.7943 44.4587 46.4486 43.0486 48.4393 40.7261C50.5129 38.3207 51.8401 34.9199 51.8401 31.1044C51.8401 27.3718 50.5129 23.971 48.4393 21.4826C46.4486 19.1601 43.7943 17.7501 40.8912 17.7501H16.7539L22.5601 11.9438Z" fill="#393939"/>
<path fill-rule="evenodd" clip-rule="evenodd" d="M16.9189 56.1543V35.0031C16.9189 33.2613 17.6655 31.6853 18.7438 30.524C19.905 29.3628 21.481 28.6992 23.2228 28.6992H39.3973V34.5054H23.1399C22.974 34.5054 22.8911 34.5884 22.8081 34.6713C22.7252 34.7543 22.6422 34.9202 22.6422 35.0031V61.9606L16.9189 56.1543Z" fill="#393939"/>
<path fill-rule="evenodd" clip-rule="evenodd" d="M48.0249 64.9466L38.1543 47.8597L43.1311 45.0396L52.1722 60.7163L48.0249 64.9466Z" fill="#393939"/>
<path fill-rule="evenodd" clip-rule="evenodd" d="M57.5638 31.0215C57.5638 36.1642 55.7389 40.8921 52.8358 44.3758C50.8451 46.6983 48.4397 48.4402 45.6195 49.3526L52.1723 60.7162L71.9964 40.8921C74.2359 38.6526 74.2359 34.92 71.9964 32.6805L40.9746 1.65866C38.735 -0.580882 35.0024 -0.580882 32.7629 1.65866L22.5605 11.944H40.9746C45.6195 11.944 49.8498 14.1835 52.9188 17.7502C55.7389 21.151 57.5638 25.8789 57.5638 31.0215Z" fill="#B38835"/>
</g>
<defs>
<clipPath id="clip0_8410_982">
<rect width="73.656" height="73.656" fill="white"/>
</clipPath>
</defs>
</svg>
