<svg width="25" height="25" viewBox="0 0 25 25" fill="none" xmlns="http://www.w3.org/2000/svg">
<path d="M24.2676 1.5625H22.0215V0.732422C22.0215 0.32793 21.6936 0 21.2891 0C20.8846 0 20.5566 0.32793 20.5566 0.732422V1.5625H17.627V0.732422C17.627 0.32793 17.299 0 16.8945 0C16.49 0 16.1621 0.32793 16.1621 0.732422V1.5625H13.2324V0.732422C13.2324 0.32793 12.9045 0 12.5 0C12.0955 0 11.7676 0.32793 11.7676 0.732422V1.5625H8.83789V0.732422C8.83789 0.32793 8.50996 0 8.10547 0C7.70098 0 7.37305 0.32793 7.37305 0.732422V1.5625H4.44336V0.732422C4.44336 0.32793 4.11543 0 3.71094 0C3.30645 0 2.97852 0.32793 2.97852 0.732422V1.5625H0.732422C0.32793 1.5625 0 1.89043 0 2.29492V24.2676C0 24.6721 0.32793 25 0.732422 25H24.2676C24.6721 25 25 24.6721 25 24.2676V2.29492C25 1.89043 24.6721 1.5625 24.2676 1.5625ZM2.97852 3.02734V3.75977C2.97852 4.16426 3.30645 4.49219 3.71094 4.49219C4.11543 4.49219 4.44336 4.16426 4.44336 3.75977V3.02734H7.37305V3.75977C7.37305 4.16426 7.70098 4.49219 8.10547 4.49219C8.50996 4.49219 8.83789 4.16426 8.83789 3.75977V3.02734H11.7676V3.75977C11.7676 4.16426 12.0955 4.49219 12.5 4.49219C12.9045 4.49219 13.2324 4.16426 13.2324 3.75977V3.02734H16.1621V3.75977C16.1621 4.16426 16.49 4.49219 16.8945 4.49219C17.299 4.49219 17.627 4.16426 17.627 3.75977V3.02734H20.5566V3.75977C20.5566 4.16426 20.8846 4.49219 21.2891 4.49219C21.6936 4.49219 22.0215 4.16426 22.0215 3.75977V3.02734H23.5352V5.95703H1.46484V3.02734H2.97852ZM1.46484 23.5352V7.42188H23.5352V23.5352H1.46484Z" fill="#9A9B9B"/>
<path d="M8.10547 10.3516H5.17578C4.77129 10.3516 4.44336 10.6795 4.44336 11.084V14.0137C4.44336 14.4182 4.77129 14.7461 5.17578 14.7461H8.10547C8.50996 14.7461 8.83789 14.4182 8.83789 14.0137V11.084C8.83789 10.6795 8.50996 10.3516 8.10547 10.3516ZM7.37305 13.2812H5.9082V11.8164H7.37305V13.2812Z" fill="#9A9B9B"/>
<path d="M19.8242 10.3516H16.8945C16.49 10.3516 16.1621 10.6795 16.1621 11.084V14.0137C16.1621 14.4182 16.49 14.7461 16.8945 14.7461H19.8242C20.2287 14.7461 20.5566 14.4182 20.5566 14.0137V11.084C20.5566 10.6795 20.2287 10.3516 19.8242 10.3516ZM19.0918 13.2812H17.627V11.8164H19.0918V13.2812Z" fill="#9A9B9B"/>
<path d="M13.9648 16.1621H11.0352C10.6307 16.1621 10.3027 16.49 10.3027 16.8945V19.8242C10.3027 20.2287 10.6307 20.5566 11.0352 20.5566H13.9648C14.3693 20.5566 14.6973 20.2287 14.6973 19.8242V16.8945C14.6973 16.49 14.3693 16.1621 13.9648 16.1621ZM13.2324 19.0918H11.7676V17.627H13.2324V19.0918Z" fill="#9A9B9B"/>
<path d="M13.9648 10.3516H11.0352C10.6307 10.3516 10.3027 10.6795 10.3027 11.084V14.0137C10.3027 14.4182 10.6307 14.7461 11.0352 14.7461H13.9648C14.3693 14.7461 14.6973 14.4182 14.6973 14.0137V11.084C14.6973 10.6795 14.3693 10.3516 13.9648 10.3516ZM13.2324 13.2812H11.7676V11.8164H13.2324V13.2812Z" fill="#9A9B9B"/>
<path d="M19.8242 16.1621H16.8945C16.49 16.1621 16.1621 16.49 16.1621 16.8945V19.8242C16.1621 20.2287 16.49 20.5566 16.8945 20.5566H19.8242C20.2287 20.5566 20.5566 20.2287 20.5566 19.8242V16.8945C20.5566 16.49 20.2287 16.1621 19.8242 16.1621ZM19.0918 19.0918H17.627V17.627H19.0918V19.0918Z" fill="#9A9B9B"/>
<path d="M8.5675 16.8536C8.25364 16.5984 7.79236 16.6461 7.53718 16.9598L6.04802 18.7915L5.64021 18.4571C5.32741 18.2005 4.86594 18.2462 4.60944 18.559C4.35295 18.8718 4.3986 19.3333 4.7114 19.5898L5.68796 20.3905C6.00232 20.6483 6.4654 20.6003 6.72068 20.2862L8.6738 17.8839C8.92898 17.57 8.88137 17.1088 8.5675 16.8536Z" fill="#9A9B9B"/>
</svg>
