<svg width="173" height="173" viewBox="0 0 173 173" fill="none" xmlns="http://www.w3.org/2000/svg">
<g clip-path="url(#clip0_8328_4419)">
<path d="M166.395 31.9975L60.4406 9.57467C55.9578 8.62627 51.5146 11.5184 50.5662 16.0012L48.5532 28.9372L170.807 54.808L172.819 41.8719C173.768 37.3908 170.877 32.9462 166.395 31.9975Z" fill="#E3D6AE"/>
<path d="M121.838 57.5515C120.601 53.0947 115.943 50.4604 111.488 51.696L91.3741 57.2798L43.9565 47.2446L38.7416 71.8846L6.15857 80.9281C1.7035 82.164 -0.930805 86.8215 0.304796 91.2768L18.6672 157.446C19.9048 161.901 24.5625 164.537 29.0176 163.3L134.347 134.07C138.802 132.832 141.436 128.177 140.201 123.72L137.049 112.36L148.862 114.858C153.345 115.808 157.788 112.916 158.736 108.433L166.21 73.1156L123.659 64.1114L121.838 57.5515ZM134.002 91.1815L136.607 78.8702C136.999 77.0268 138.826 75.8379 140.669 76.2271L152.981 78.8337C154.826 79.225 156.015 81.0508 155.626 82.8959L153.021 95.2072C152.629 97.0506 150.802 98.2412 148.959 97.8503L136.647 95.2454C134.8 94.8527 133.611 93.0249 134.002 91.1815ZM7.99147 87.5313L37.1402 79.4449L105.916 60.3591L113.317 58.3028C113.452 58.2664 113.587 58.2491 113.719 58.2491C114.313 58.2491 115.022 58.6387 115.23 59.3847L116.099 62.514L118.821 72.3241L10.5011 102.383L6.90965 89.4456C6.68464 88.6337 7.1799 87.7563 7.99147 87.5313ZM133.596 125.551C133.734 126.053 133.589 126.468 133.442 126.728C133.296 126.987 133.016 127.327 132.514 127.465L27.1864 156.695C27.0533 156.731 26.9164 156.75 26.7847 156.75C26.1911 156.75 25.4813 156.359 25.2738 155.613L14.5635 117.018L122.884 86.9566L129.49 110.761L133.596 125.551Z" fill="#E3D6AE"/>
<path d="M44.2055 128.192C43.7 126.374 41.803 125.301 39.9856 125.805L27.6847 129.22C25.869 129.724 24.7943 131.622 25.2997 133.44L28.7128 145.739C29.2183 147.556 31.1153 148.629 32.9327 148.124L45.2336 144.711C47.051 144.207 48.124 142.308 47.6203 140.491L44.2055 128.192Z" fill="#E3D6AE"/>
</g>
<defs>
<clipPath id="clip0_8328_4419">
<rect width="173" height="173" fill="white"/>
</clipPath>
</defs>
</svg>
