<svg width="16" height="16" viewBox="0 0 16 16" fill="none" xmlns="http://www.w3.org/2000/svg">
<path d="M9.51965 6.7199C10.5596 6.7199 11.1996 5.1999 11.1996 4.2399C11.1996 3.4399 10.7996 2.4799 9.99965 2.4799C8.95965 2.4799 8.31965 3.9999 8.31965 4.9599C8.31965 5.7599 8.71965 6.7199 9.51965 6.7199ZM6.47965 6.7199C7.27965 6.7199 7.67965 5.7599 7.67965 4.9599C7.67965 3.9199 7.03965 2.3999 5.99965 2.3999C5.19965 2.3999 4.79965 3.3599 4.79965 4.1599C4.71965 5.1999 5.35965 6.7199 6.47965 6.7199ZM12.3996 5.9199C11.3596 5.9199 10.6396 7.3599 10.6396 8.3999C10.6396 9.1199 10.9596 9.8399 11.6796 9.8399C12.7196 9.8399 13.4396 8.3999 13.4396 7.3599C13.4396 6.6399 13.0396 5.9199 12.3996 5.9199ZM5.43965 8.3999C5.43965 7.3599 4.63965 5.9199 3.67965 5.9199C2.95965 5.9199 2.63965 6.6399 2.63965 7.3599C2.63965 8.3999 3.43965 9.8399 4.39965 9.8399C5.11965 9.8399 5.43965 9.1199 5.43965 8.3999ZM7.99965 8.2399C6.39965 8.2399 4.23965 10.7999 4.23965 12.5599C4.23965 13.3599 4.79965 13.5999 5.43965 13.5999C6.39965 13.5999 7.11965 12.9599 7.99965 12.9599C8.79965 12.9599 9.51965 13.5999 10.3996 13.5999C11.0396 13.5999 11.7596 13.4399 11.7596 12.5599C11.7596 10.7999 9.59965 8.2399 7.99965 8.2399Z" fill="#B59E5C"/>
</svg>
