<svg width="328" height="125" viewBox="0 0 328 125" fill="none" xmlns="http://www.w3.org/2000/svg">
<g filter="url(#filter0_d_8328_4631)">
<path d="M13.7823 104.428C13.7823 100.68 10.7447 97.64 7 97.64V93.8375C10.7447 93.8375 13.7823 90.7974 13.7823 87.0495C13.7823 83.3016 10.7447 80.2615 7 80.2615V76.459C10.7447 76.459 13.7823 73.4189 13.7823 69.6711C13.7823 65.9232 10.7447 62.8831 7 62.8831V59.083C10.7447 59.083 13.7823 56.0429 13.7823 52.295C13.7823 48.5471 10.7447 45.507 7 45.507V41.7045C10.7447 41.7045 13.7823 38.6644 13.7823 34.9166C13.7823 31.1687 10.7447 28.1286 7 28.1286V24.3261C10.7447 24.3261 13.7823 21.286 13.7823 17.5381C13.7823 13.7879 10.7471 10.7502 7 10.7502V6H48.8874C48.8874 12.1514 53.8685 17.1367 60.0149 17.1367C66.1612 17.1367 71.1423 12.1514 71.1423 6H253.946V115.966H71.1423C71.1423 109.815 66.1612 104.829 60.0149 104.829C53.8685 104.829 48.8874 109.815 48.8874 115.966H7V111.216C10.7471 111.216 13.7823 108.178 13.7823 104.428Z" fill="white"/>
<rect x="254.006" y="6" width="66.9944" height="110.104" fill="white"/>
</g>
<path d="M13.7823 104.428C13.7823 100.68 10.7447 97.64 7 97.64V93.8375C10.7447 93.8375 13.7823 90.7974 13.7823 87.0495C13.7823 83.3016 10.7447 80.2615 7 80.2615V76.459C10.7447 76.459 13.7823 73.4189 13.7823 69.6711C13.7823 65.9232 10.7447 62.8831 7 62.8831V59.083C10.7447 59.083 13.7823 56.0429 13.7823 52.295C13.7823 48.5471 10.7447 45.507 7 45.507V41.7045C10.7447 41.7045 13.7823 38.6644 13.7823 34.9166C13.7823 31.1687 10.7447 28.1286 7 28.1286V24.3261C10.7447 24.3261 13.7823 21.286 13.7823 17.5381C13.7823 13.7879 10.7471 10.7502 7 10.7502V6H48.8874C48.8874 12.1514 53.8686 17.1367 60.0149 17.1367V104.829C53.8686 104.829 48.8874 109.815 48.8874 115.966H7V111.216C10.7471 111.216 13.7823 108.178 13.7823 104.428Z" fill="#B38835"/>
<defs>
<filter id="filter0_d_8328_4631" x="0" y="0" width="328" height="124.104" filterUnits="userSpaceOnUse" color-interpolation-filters="sRGB">
<feFlood flood-opacity="0" result="BackgroundImageFix"/>
<feColorMatrix in="SourceAlpha" type="matrix" values="0 0 0 0 0 0 0 0 0 0 0 0 0 0 0 0 0 0 127 0" result="hardAlpha"/>
<feOffset dy="1"/>
<feGaussianBlur stdDeviation="3.5"/>
<feComposite in2="hardAlpha" operator="out"/>
<feColorMatrix type="matrix" values="0 0 0 0 0 0 0 0 0 0 0 0 0 0 0 0 0 0 0.25 0"/>
<feBlend mode="normal" in2="BackgroundImageFix" result="effect1_dropShadow_8328_4631"/>
<feBlend mode="normal" in="SourceGraphic" in2="effect1_dropShadow_8328_4631" result="shape"/>
</filter>
</defs>
</svg>
