<svg width="20" height="17" viewBox="0 0 20 17" fill="none" xmlns="http://www.w3.org/2000/svg">
<path d="M0.561381 12.9118C0.879796 12.9118 1.01565 13.0338 1.29264 13.3096C1.59986 13.6155 2.02063 14.0346 2.81615 14.0346C3.6117 14.0346 4.03247 13.6156 4.3397 13.3096C4.61668 13.0338 4.75257 12.9118 5.07103 12.9118C5.38948 12.9118 5.52533 13.0338 5.80232 13.3096C6.10954 13.6155 6.53032 14.0346 7.32583 14.0346C8.12135 14.0346 8.54216 13.6156 8.84935 13.3096C9.12629 13.0338 9.26215 12.9118 9.58056 12.9118C9.89901 12.9118 10.0349 13.0338 10.3119 13.3096C10.6191 13.6156 11.0399 14.0346 11.8354 14.0346C12.631 14.0346 13.0518 13.6156 13.359 13.3096C13.636 13.0338 13.7719 12.9118 14.0904 12.9118C14.4088 12.9118 14.5447 13.0338 14.8218 13.3096C15.129 13.6156 15.5498 14.0346 16.3454 14.0346C17.141 14.0346 17.5618 13.6156 17.869 13.3096C18.146 13.0338 18.2819 12.9118 18.6004 12.9118C18.9104 12.9118 19.1618 12.6605 19.1618 12.3504C19.1618 12.0404 18.9104 11.7891 18.6004 11.7891C17.8048 11.7891 17.3841 12.2081 17.0768 12.514C16.7998 12.7899 16.6639 12.9118 16.3454 12.9118C16.0269 12.9118 15.891 12.7899 15.614 12.514C15.3068 12.2081 14.8859 11.7891 14.0904 11.7891C13.2948 11.7891 12.874 12.2081 12.5668 12.514C12.2898 12.7899 12.1539 12.9118 11.8354 12.9118C11.517 12.9118 11.3811 12.7899 11.1041 12.5141C10.7969 12.2081 10.3762 11.7891 9.5806 11.7891C8.78505 11.7891 8.36431 12.2081 8.05709 12.5141C7.78014 12.7899 7.64428 12.9118 7.32583 12.9118C7.00738 12.9118 6.87153 12.7899 6.59454 12.5141C6.28732 12.2081 5.86654 11.7891 5.07099 11.7891C4.2754 11.7891 3.85467 12.2081 3.54744 12.5141C3.27046 12.7899 3.1346 12.9118 2.81615 12.9118C2.49773 12.9118 2.36188 12.7899 2.08489 12.5141C1.77771 12.2081 1.35693 11.7891 0.561381 11.7891C0.251349 11.7891 0 12.0404 0 12.3504C0 12.6605 0.251349 12.9118 0.561381 12.9118Z" fill="#333333"/>
<path d="M18.6004 14.4087C17.8048 14.4087 17.3841 14.8277 17.0768 15.1337C16.7998 15.4095 16.6639 15.5315 16.3454 15.5315C16.0269 15.5315 15.891 15.4095 15.614 15.1337C15.3068 14.8277 14.8859 14.4087 14.0904 14.4087C13.2948 14.4087 12.874 14.8277 12.5668 15.1337C12.2898 15.4095 12.1539 15.5315 11.8354 15.5315C11.517 15.5315 11.3811 15.4095 11.1041 15.1337C10.7969 14.8277 10.3762 14.4087 9.5806 14.4087C8.78505 14.4087 8.36431 14.8277 8.05709 15.1337C7.78014 15.4095 7.64428 15.5315 7.32583 15.5315C7.00738 15.5315 6.87153 15.4095 6.59454 15.1337C6.28732 14.8277 5.86654 14.4087 5.07099 14.4087C4.2754 14.4087 3.85467 14.8277 3.54744 15.1337C3.27046 15.4095 3.1346 15.5315 2.81615 15.5315C2.49773 15.5315 2.36188 15.4095 2.08489 15.1337C1.77771 14.8277 1.35693 14.4087 0.561381 14.4087C0.251349 14.4087 0 14.66 0 14.9701C0 15.2801 0.251349 15.5315 0.561381 15.5315C0.879796 15.5315 1.01565 15.6534 1.29264 15.9292C1.59986 16.2352 2.02063 16.6542 2.81615 16.6542C3.6117 16.6542 4.03247 16.2352 4.3397 15.9292C4.61668 15.6534 4.75257 15.5315 5.07103 15.5315C5.38948 15.5315 5.52533 15.6534 5.80232 15.9292C6.10954 16.2352 6.53032 16.6542 7.32583 16.6542C8.12135 16.6542 8.54216 16.2352 8.84935 15.9292C9.12629 15.6534 9.26215 15.5315 9.58056 15.5315C9.89901 15.5315 10.0349 15.6534 10.3119 15.9292C10.6191 16.2352 11.0399 16.6542 11.8354 16.6542C12.631 16.6542 13.0518 16.2352 13.359 15.9292C13.636 15.6534 13.7719 15.5315 14.0904 15.5315C14.4088 15.5315 14.5447 15.6534 14.8218 15.9292C15.129 16.2352 15.5498 16.6542 16.3454 16.6542C17.141 16.6542 17.5618 16.2352 17.869 15.9292C18.146 15.6534 18.2819 15.5315 18.6004 15.5315C18.9104 15.5315 19.1618 15.2801 19.1618 14.9701C19.1618 14.66 18.9104 14.4087 18.6004 14.4087Z" fill="#333333"/>
<path d="M9.58091 2.24552C9.89094 2.24552 10.1423 1.99417 10.1423 1.68414V0.561381C10.1423 0.251349 9.89094 0 9.58091 0C9.27088 0 9.01953 0.251349 9.01953 0.561381V1.68414C9.01953 1.99417 9.27088 2.24552 9.58091 2.24552Z" fill="#333333"/>
<path d="M5.165 3.01764C5.32081 3.28748 5.66463 3.37741 5.93185 3.2231C6.20034 3.06809 6.29233 2.72475 6.13732 2.45626L5.57593 1.48391C5.42092 1.21542 5.07758 1.12339 4.80909 1.27844C4.5406 1.43346 4.44861 1.7768 4.60362 2.04529L5.165 3.01764Z" fill="#333333"/>
<path d="M1.52103 5.53837L2.49338 6.09975C2.76067 6.25413 3.10457 6.16394 3.26022 5.89429C3.41524 5.6258 3.32325 5.28246 3.05476 5.12744L2.08241 4.56606C1.81388 4.41097 1.47054 4.50303 1.31556 4.77152C1.16051 5.04001 1.2525 5.38335 1.52103 5.53837Z" fill="#333333"/>
<path d="M0.59849 10.1047H1.72125C2.03128 10.1047 2.28263 9.85335 2.28263 9.54331C2.28263 9.23328 2.03128 8.98193 1.72125 8.98193H0.59849C0.288458 8.98193 0.0371094 9.23328 0.0371094 9.54331C0.0371094 9.85335 0.288458 10.1047 0.59849 10.1047Z" fill="#333333"/>
<path d="M16.8789 9.54331C16.8789 9.85335 17.1303 10.1047 17.4403 10.1047H18.563C18.8731 10.1047 19.1244 9.85335 19.1244 9.54331C19.1244 9.23328 18.8731 8.98193 18.563 8.98193H17.4403C17.1303 8.98193 16.8789 9.23328 16.8789 9.54331Z" fill="#333333"/>
<path d="M16.6683 6.09973L17.6407 5.53835C17.9092 5.38334 18.0012 5.04 17.8461 4.77151C17.6911 4.50302 17.3478 4.41099 17.0793 4.56604L16.1069 5.12742C15.8384 5.28244 15.7465 5.62578 15.9015 5.89427C16.0573 6.16411 16.4011 6.25404 16.6683 6.09973Z" fill="#333333"/>
<path d="M13.23 3.22312C13.4973 3.3775 13.8412 3.28731 13.9968 3.01766L14.5582 2.04531C14.7132 1.77682 14.6212 1.43348 14.3527 1.27846C14.0842 1.12337 13.7409 1.21544 13.5859 1.48393L13.0245 2.45628C12.8695 2.72477 12.9615 3.06811 13.23 3.22312Z" fill="#333333"/>
<path d="M5.07152 10.6661C6.26446 10.6661 6.94414 11.2804 7.32633 11.6577C7.70852 11.2804 8.38816 10.6661 9.5811 10.6661C10.7741 10.6661 11.4538 11.2805 11.836 11.6578C12.2182 11.2804 12.8979 10.6661 14.0909 10.6661C14.7138 10.6661 15.1965 10.8337 15.5702 11.0475C16.5507 7.13327 13.5763 3.36816 9.5814 3.36816C5.578 3.36816 2.61391 7.14049 3.5924 11.0473C3.96613 10.8336 4.44877 10.6661 5.07152 10.6661Z" fill="#333333"/>
</svg>
