<svg width="23" height="25" viewBox="0 0 23 25" fill="none" xmlns="http://www.w3.org/2000/svg">
<path d="M21.2228 5.6194C19.7232 3.02203 17.3019 1.1641 14.405 0.387894C11.508 -0.388315 8.48215 0.0100415 5.88483 1.50959C3.28751 3.00919 1.42953 5.43043 0.653324 8.3274C0.0629649 10.5307 0.151619 12.8277 0.909766 14.9701C1.59132 16.8962 2.76847 18.5824 4.3287 19.8768L1.8234 22.3822C1.41005 22.7955 1.41005 23.4681 1.8234 23.8815L2.63237 24.6905C2.83906 24.8972 3.11054 25.0005 3.38207 25.0005C3.65354 25.0005 3.92507 24.8972 4.13177 24.6905L7.21088 21.6114C7.65966 21.7961 8.1228 21.9532 8.59282 22.0791C9.56021 22.3384 10.5418 22.4666 11.5171 22.4666C13.4627 22.4666 15.3829 21.9563 17.113 20.9574C19.7103 19.4578 21.5683 17.0366 22.3445 14.1396C23.1208 11.2426 22.7224 8.21672 21.2228 5.6194ZM6.37301 2.35512C6.44595 2.31299 6.51932 2.27189 6.59299 2.23166C6.67241 2.42889 6.69472 2.59833 6.71611 2.76383C6.76693 3.15628 6.8301 3.6447 7.61563 3.93698C7.74671 3.98575 7.8976 4.01933 8.05739 4.05492C8.24949 4.09769 8.69935 4.19781 8.75275 4.31141C8.76203 4.33114 8.76486 4.43151 8.66508 4.63234C8.56773 4.69 8.23245 4.71055 8.02932 4.723C7.50808 4.75498 6.85939 4.79481 6.5096 5.28436C6.27982 5.60593 6.24115 6.02728 6.39132 6.57253C6.53274 7.086 7.05378 7.19808 7.43422 7.27995C7.68446 7.3338 7.96815 7.39482 8.05011 7.52707C8.28625 7.90824 8.35357 8.23776 8.29806 8.36625C8.26613 8.44017 8.14233 8.47941 8.04406 8.49938C7.58658 8.59238 7.2512 8.47444 6.48319 7.95125C6.39283 7.88969 6.24813 7.7592 6.10817 7.63305C5.62326 7.19598 5.07386 6.70043 4.51816 6.83717C3.88084 6.99393 3.70446 6.97132 3.66477 6.96024C3.64339 6.93705 3.60175 6.87081 3.57075 6.82145C3.42732 6.59303 3.22365 6.26907 2.7135 5.94209C3.5974 4.46978 4.84471 3.23751 6.37301 2.35512ZM2.53917 16.2332C2.64974 16.2158 2.77867 16.1832 2.91781 16.1062C3.26085 15.9162 3.37523 15.643 3.44353 15.4798C3.4489 15.4669 3.4552 15.4518 3.4612 15.4381C3.47384 15.4367 3.4901 15.4355 3.51046 15.435C3.87318 15.4258 4.20353 15.7028 4.52217 15.9703C4.84373 16.2402 5.1755 16.5187 5.58787 16.5187C5.62131 16.5187 5.65529 16.5169 5.68985 16.5131C5.81077 16.4998 5.92608 16.4624 6.03529 16.4015C6.24735 17.2368 6.64649 17.9981 7.1852 18.6384L6.47612 19.3475L6.41685 19.2882C6.03934 18.9107 5.44634 18.8792 5.03134 19.191C3.99996 18.3534 3.16229 17.3468 2.53917 16.2332ZM3.44138 24.0001C3.40975 24.0316 3.35429 24.0316 3.3228 24.0001L2.51383 23.1912C2.48225 23.1596 2.48225 23.1042 2.51383 23.0726L5.60783 19.9786C5.6236 19.9628 5.64538 19.9549 5.6671 19.9549C5.68882 19.9549 5.7106 19.9628 5.72637 19.9786L6.13073 20.383C6.13078 20.383 6.13083 20.3831 6.13083 20.3831C6.13083 20.3832 6.13092 20.3832 6.13097 20.3832L6.53538 20.7876C6.5551 20.8073 6.55925 20.8307 6.55925 20.8469C6.55925 20.863 6.5551 20.8865 6.53538 20.9061L3.44138 24.0001ZM8.84556 21.136C8.39462 21.0152 7.95082 20.8629 7.5219 20.6832C7.48792 20.4619 7.38648 20.2578 7.22572 20.0971L7.16641 20.0378L7.87549 19.3287C8.85595 20.1536 10.1203 20.6514 11.4989 20.6514C12.8852 20.6514 14.156 20.148 15.1388 19.3148C15.2166 19.5413 15.3941 19.7046 15.6387 19.7701C15.6599 19.7759 15.6715 19.7812 15.6766 19.7839C15.7035 19.8339 15.7116 20.0045 15.7166 20.1075C15.7227 20.2354 15.7304 20.3912 15.7665 20.5498C13.6709 21.5119 11.2417 21.7781 8.84556 21.136ZM21.4015 13.8869C20.6774 16.5889 18.9321 18.7496 16.6922 20.0663C16.6921 20.0647 16.692 20.0627 16.6919 20.061C16.6763 19.7337 16.6485 19.1505 16.0828 18.8947C16.0842 18.8839 16.0855 18.8734 16.0868 18.8635C16.1079 18.7008 16.1341 18.4946 16.094 18.2757C16.7495 17.3547 17.1353 16.2291 17.1353 15.015C17.1353 13.8374 16.7758 12.7093 16.0956 11.7524C15.9394 11.5327 15.6346 11.4812 15.4148 11.6374C15.1951 11.7936 15.1436 12.0984 15.2998 12.3182C15.8619 13.1087 16.159 14.0413 16.159 15.015C16.159 17.5845 14.0685 19.6751 11.4989 19.6751C8.92938 19.6751 6.83888 17.5846 6.83888 15.015C6.83888 12.4454 8.92938 10.355 11.4989 10.355C11.6417 10.355 11.7882 10.3618 11.9345 10.3754C12.2027 10.3999 12.4408 10.2027 12.4656 9.93429C12.4905 9.66584 12.293 9.428 12.0245 9.40315C11.8485 9.38685 11.6716 9.3786 11.4989 9.3786C8.39101 9.3786 5.86252 11.9071 5.86252 15.015C5.86252 15.0847 5.86423 15.1539 5.86677 15.2229C5.79491 15.2875 5.71958 15.3648 5.64865 15.4577C5.61584 15.5006 5.59148 15.5243 5.57674 15.5366C5.48154 15.5009 5.28402 15.3352 5.14992 15.2225C4.75718 14.8928 4.2192 14.4416 3.48683 14.459C2.80543 14.4754 2.62807 14.8992 2.54283 15.1028C2.49401 15.2195 2.48586 15.2293 2.44485 15.252C2.4202 15.2657 2.3935 15.2698 2.30045 15.2793C2.24021 15.2854 2.16625 15.2934 2.08233 15.3104C1.18329 13.236 0.981138 10.8763 1.59634 8.58018C1.76159 7.96341 1.98123 7.37066 2.24992 6.80632C2.52931 6.99964 2.64184 7.17831 2.74391 7.34083C2.86821 7.53879 3.03848 7.80982 3.42664 7.90702C3.71745 7.97981 4.0809 7.94822 4.71617 7.79401C4.88186 7.84224 5.26625 8.18875 5.45445 8.35844C5.62619 8.5132 5.78836 8.65941 5.9335 8.75826C6.5303 9.16482 7.09279 9.50313 7.78557 9.50308C7.93026 9.50308 8.08072 9.48834 8.23831 9.45632C8.8293 9.33632 9.08442 9.00802 9.19431 8.75368C9.47775 8.0978 9.069 7.31783 8.88007 7.01297C8.57945 6.52776 8.03625 6.41089 7.6396 6.32556C7.53703 6.30349 7.39136 6.27215 7.31452 6.24276C7.25809 6.00462 7.27996 5.88585 7.30407 5.85207C7.38345 5.74096 7.82521 5.71386 8.08917 5.69766C8.60791 5.66583 9.25348 5.62619 9.52535 5.09504C9.7587 4.63913 9.79605 4.23579 9.63646 3.89621C9.37924 3.34896 8.73791 3.20622 8.2696 3.10194C8.14902 3.07509 8.02434 3.04736 7.95614 3.02198C7.72284 2.93518 7.72283 2.93518 7.68441 2.63856C7.65747 2.4302 7.62012 2.14603 7.4721 1.8045C9.57607 0.901071 11.9066 0.72928 14.1523 1.33101C19.6126 2.79405 22.8645 8.42659 21.4015 13.8869Z" fill="#9A9B9B"/>
</svg>
