<svg width="30" height="28" viewBox="0 0 30 28" fill="none" xmlns="http://www.w3.org/2000/svg">
<path d="M24.1725 0H5.51221C2.84646 0 0.561523 2.18919 0.561523 4.74324V22.6216C0.561523 25.1757 2.84646 27.3649 5.51221 27.3649H24.1725C26.8382 27.3649 29.1232 25.1757 29.1232 22.6216V4.74324C29.1232 2.18919 26.8382 0 24.1725 0ZM18.841 8.75676C18.0793 8.75676 17.6985 8.75676 16.9369 8.75676C16.1752 8.75676 15.7944 9.12162 15.7944 9.85135C15.7944 10.5811 15.7944 12.0405 15.7944 12.0405C15.7944 12.0405 17.3177 12.0405 18.0793 12.0405C18.0793 12.0405 18.4602 12.0405 18.841 12.0405C18.841 13.1351 18.4602 13.8649 18.4602 14.9595H15.7944V22.2568H12.7478V14.9595H10.0821V12.0405H12.7478C12.7478 11.3108 12.7478 10.9459 12.7478 10.2162C12.7478 9.85135 12.7478 9.48649 12.7478 9.12162C12.7478 8.39189 13.5095 7.2973 14.2711 6.93243C15.0328 6.56757 15.7944 6.2027 16.5561 6.2027C16.9369 6.2027 17.6985 6.2027 18.0793 6.2027C18.4602 6.2027 18.841 6.2027 18.841 6.2027V8.75676Z" fill="#B59E5C"/>
</svg>
