<svg width="19" height="18" viewBox="0 0 19 18" fill="none" xmlns="http://www.w3.org/2000/svg">
<path d="M6.87544 8.73348V17.0311C6.87544 17.143 6.90407 17.2531 6.95859 17.3508C7.01311 17.4485 7.09171 17.5307 7.18693 17.5895C7.28216 17.6483 7.39083 17.6817 7.50263 17.6867C7.61443 17.6917 7.72564 17.6679 7.82569 17.6178L11.7632 15.649C11.8721 15.5945 11.9636 15.5107 12.0276 15.4071C12.0916 15.3035 12.1254 15.1841 12.1254 15.0624V8.73348L17.8834 1.69716C17.938 1.63046 17.979 1.55365 18.0039 1.47111C18.0289 1.38858 18.0373 1.30194 18.0288 1.21614C18.0203 1.13033 17.9949 1.04705 17.9542 0.971048C17.9135 0.895042 17.8582 0.827801 17.7915 0.773163C17.7248 0.718525 17.648 0.67756 17.5655 0.652607C17.4829 0.627654 17.3963 0.619202 17.3105 0.627734C17.2247 0.636265 17.1414 0.661613 17.0654 0.70233C16.9894 0.743046 16.9221 0.798335 16.8675 0.865038L10.9613 8.08379C10.8652 8.20118 10.8128 8.3482 10.8129 8.49986V14.6568L8.18794 15.9693V8.49986C8.18807 8.3482 8.13566 8.20118 8.03963 8.08379L3.01013 1.93735H13.4379C13.612 1.93735 13.7789 1.86821 13.902 1.74514C14.0251 1.62207 14.0942 1.45515 14.0942 1.2811C14.0942 1.10705 14.0251 0.940133 13.902 0.817062C13.7789 0.693991 13.612 0.62485 13.4379 0.62485H1.62544C1.50112 0.624767 1.37933 0.66 1.27426 0.726445C1.16918 0.79289 1.08514 0.887815 1.03192 1.00017C0.978703 1.11252 0.958491 1.23768 0.973642 1.36108C0.988792 1.48447 1.03868 1.60102 1.1175 1.69716L6.87544 8.73348Z" fill="white"/>
</svg>
