<svg width="16" height="16" viewBox="0 0 16 16" fill="none" xmlns="http://www.w3.org/2000/svg">
<path fill-rule="evenodd" clip-rule="evenodd" d="M5.00033 5.99992C5.35395 5.99992 5.69309 5.85944 5.94313 5.60939C6.19318 5.35935 6.33366 5.02021 6.33366 4.66659C6.33366 4.31296 6.19318 3.97382 5.94313 3.72378C5.69309 3.47373 5.35395 3.33325 5.00033 3.33325C4.6467 3.33325 4.30756 3.47373 4.05752 3.72378C3.80747 3.97382 3.66699 4.31296 3.66699 4.66659C3.66699 5.02021 3.80747 5.35935 4.05752 5.60939C4.30756 5.85944 4.6467 5.99992 5.00033 5.99992ZM5.00033 5.33325C5.17714 5.33325 5.34671 5.26301 5.47173 5.13799C5.59675 5.01297 5.66699 4.8434 5.66699 4.66659C5.66699 4.48977 5.59675 4.32021 5.47173 4.19518C5.34671 4.07016 5.17714 3.99992 5.00033 3.99992C4.82351 3.99992 4.65395 4.07016 4.52892 4.19518C4.4039 4.32021 4.33366 4.48977 4.33366 4.66659C4.33366 4.8434 4.4039 5.01297 4.52892 5.13799C4.65395 5.26301 4.82351 5.33325 5.00033 5.33325Z" fill="#B59E5C"/>
<path d="M6.08945 7.80067L4.18945 7L6.08945 7.80133V7.80067ZM6.08945 7.80067L6.14679 7.825L6.08945 7.73833V7.80067Z" fill="#B59E5C"/>
<path fill-rule="evenodd" clip-rule="evenodd" d="M3.27332 6.66325C3.46098 6.52092 3.77732 6.33325 4.18965 6.33325H5.85498C6.30932 6.33325 6.64832 6.57259 6.81332 6.70592C7.00665 6.86225 7.17398 7.05025 7.30332 7.21092C7.50965 7.46625 7.69998 7.75592 7.80865 7.92025L7.81098 7.92359C7.83732 7.96359 7.85732 7.99425 7.87232 8.01625C7.94132 8.11792 7.98898 8.22825 8.01665 8.34092C8.04098 8.21159 8.09198 8.08525 8.17165 7.96959C8.20465 7.92192 8.24432 7.86225 8.29065 7.79292L8.29431 7.78692C8.42098 7.59625 8.59198 7.33925 8.76098 7.12892C8.88098 6.97925 9.03832 6.80325 9.22865 6.65759C9.40965 6.51892 9.71798 6.33325 10.1213 6.33325H11.731C12.1753 6.33325 12.5056 6.56992 12.6643 6.69959C12.8516 6.85259 13.013 7.03625 13.138 7.19292C13.337 7.44225 13.5213 7.72525 13.6256 7.88559L13.627 7.88792L13.628 7.88925L13.63 7.89225C13.6546 7.92992 13.6733 7.95892 13.6873 7.97959C13.7876 8.1292 13.8444 8.30376 13.8513 8.48378C13.8581 8.66379 13.8148 8.84216 13.7261 8.99897C13.6375 9.15579 13.507 9.28487 13.3492 9.3718C13.1914 9.45873 13.0126 9.50009 12.8326 9.49125C12.9286 9.83892 13.021 10.1549 13.0876 10.3776C13.1923 10.7286 12.982 11.1079 12.6103 11.1856C11.407 11.4373 10.5556 11.4293 9.26232 11.1823C9.17394 11.1651 9.09019 11.1295 9.01652 11.0778C8.94285 11.026 8.88093 10.9594 8.83481 10.882C8.78868 10.8047 8.75939 10.7186 8.74885 10.6292C8.73832 10.5398 8.74676 10.4492 8.77365 10.3633C8.84231 10.1423 8.93632 9.83259 9.03232 9.49059C8.81504 9.50449 8.59942 9.44471 8.42032 9.32092C8.22506 9.18673 8.08582 8.98558 8.02898 8.75559C8.00545 8.8866 7.95593 9.01158 7.88334 9.12316C7.81075 9.23473 7.71656 9.33065 7.60632 9.40525C7.48523 9.4876 7.3475 9.5423 7.20291 9.56545C7.05832 9.58861 6.9104 9.57967 6.76965 9.53925L6.77165 9.55592L6.99398 11.5559C7.02318 11.815 6.95002 12.0753 6.79008 12.2813C6.63015 12.4872 6.39609 12.6225 6.13782 12.6584C5.87954 12.6943 5.61747 12.6278 5.40747 12.4733C5.19747 12.3187 5.05616 12.0882 5.01365 11.8309L4.99998 11.7493L4.98665 11.8309C4.94588 12.0898 4.80512 12.3223 4.59466 12.4784C4.38421 12.6346 4.12087 12.7019 3.8613 12.6658C3.60174 12.6298 3.3667 12.4933 3.20674 12.2857C3.04678 12.0782 2.97469 11.8161 3.00598 11.5559L3.17865 10.0043L3.19498 9.55859C2.99936 9.59748 2.79657 9.57698 2.61269 9.49973C2.42881 9.42248 2.27222 9.29201 2.16306 9.12508C2.0539 8.95815 1.99715 8.76239 2.00011 8.56296C2.00307 8.36353 2.06559 8.16954 2.17965 8.00592C2.21232 7.95859 2.25165 7.90059 2.29732 7.83259L2.30665 7.81892C2.43732 7.62392 2.61432 7.36059 2.78932 7.14559C2.91398 6.99225 3.07698 6.81159 3.27332 6.66292V6.66325ZM4.18998 6.99992C3.98398 6.99992 3.80865 7.09425 3.67598 7.19459C3.54065 7.29725 3.41665 7.43125 3.30698 7.56592C3.15432 7.75392 2.99398 7.99159 2.85965 8.19159L2.85498 8.19825C2.80865 8.26725 2.76465 8.33292 2.72698 8.38725C2.70031 8.42307 2.68111 8.46388 2.67051 8.50726C2.65992 8.55064 2.65814 8.59571 2.6653 8.63978C2.67246 8.68386 2.6884 8.72605 2.71218 8.76385C2.73596 8.80165 2.7671 8.83428 2.80373 8.85982C2.84037 8.88535 2.88176 8.90326 2.92545 8.91249C2.96914 8.92171 3.01424 8.92207 3.05808 8.91353C3.10191 8.90499 3.14358 8.88773 3.18061 8.86277C3.21764 8.83781 3.24928 8.80567 3.27365 8.76825L3.92565 7.83159L3.84432 10.0533L3.66898 11.6299C3.66002 11.7159 3.68482 11.802 3.73815 11.8701C3.79149 11.9381 3.86918 11.9828 3.95483 11.9947C4.04047 12.0065 4.12738 11.9846 4.19719 11.9336C4.267 11.8826 4.31426 11.8065 4.32898 11.7213L4.66032 9.73392L5.00232 9.65792L5.34098 9.73725L5.67165 11.7213C5.68626 11.8066 5.7335 11.8829 5.80338 11.934C5.87326 11.9852 5.9603 12.0071 6.04606 11.9952C6.13182 11.9833 6.20958 11.9384 6.26289 11.8702C6.31619 11.802 6.34085 11.7157 6.33165 11.6296L6.10931 9.62959C6.10748 9.61339 6.10447 9.59735 6.10032 9.58159L6.08965 9.53992V7.80125L6.14732 7.82559L6.70065 8.66225L6.76932 8.76492C6.81895 8.83807 6.89562 8.88851 6.98245 8.90514C7.06928 8.92177 7.15916 8.90323 7.23232 8.85359C7.30547 8.80395 7.35591 8.72728 7.37254 8.64045C7.38917 8.55362 7.37062 8.46374 7.32098 8.39059L7.25631 8.29325L6.14732 7.82559L6.14698 7.82492L7.25565 8.29225L7.25432 8.29059C7.14465 8.12392 6.96932 7.85792 6.78498 7.62925C6.66865 7.48525 6.53565 7.33825 6.39498 7.22459C6.26365 7.11859 6.07565 6.99992 5.85532 6.99992H4.18998ZM9.61798 7.16559C9.74665 7.06725 9.91865 6.97325 10.1216 6.97325H11.7313C11.9486 6.97325 12.133 7.09159 12.26 7.19525C12.3966 7.30692 12.5256 7.45092 12.638 7.59192C12.8166 7.81559 12.9863 8.07592 13.0923 8.23859L13.0933 8.24025C13.1173 8.27692 13.1393 8.31059 13.1566 8.33625C13.2058 8.40919 13.2241 8.49868 13.2073 8.58504C13.1905 8.6714 13.1401 8.74755 13.0671 8.79675C12.9942 8.84595 12.9047 8.86416 12.8184 8.84737C12.732 8.83059 12.6558 8.78019 12.6066 8.70725C12.5644 8.64513 12.5016 8.59986 12.4293 8.57938C12.357 8.5589 12.2798 8.56452 12.2112 8.59525C12.1427 8.62598 12.0871 8.67986 12.0542 8.74745C12.0214 8.81503 12.0134 8.89202 12.0316 8.96492C12.184 9.57025 12.365 10.1933 12.4746 10.5603C11.3663 10.7916 10.6023 10.7863 9.38465 10.5543L9.38498 10.5533C9.55263 10.017 9.70557 9.47622 9.84365 8.93159C9.86167 8.85879 9.85354 8.78197 9.8207 8.71456C9.78785 8.64714 9.73237 8.59339 9.66394 8.56271C9.59551 8.53203 9.51848 8.52636 9.44629 8.54668C9.37411 8.56701 9.31135 8.61204 9.26898 8.67392L9.24498 8.70925C9.19479 8.78105 9.11822 8.83007 9.03201 8.84561C8.9458 8.86115 8.85694 8.84196 8.78483 8.79221C8.71272 8.74247 8.66322 8.66621 8.64714 8.5801C8.63105 8.49398 8.64969 8.405 8.69898 8.33259C8.73532 8.27992 8.77798 8.21592 8.82265 8.14859L8.82432 8.14625C8.95465 7.94992 9.11098 7.71525 9.25998 7.52992C9.36598 7.39792 9.48632 7.26659 9.61798 7.16559ZM11 5.99992C11.3536 5.99992 11.6927 5.85944 11.9428 5.60939C12.1928 5.35935 12.3333 5.02021 12.3333 4.66659C12.3333 4.31296 12.1928 3.97382 11.9428 3.72378C11.6927 3.47373 11.3536 3.33325 11 3.33325C10.6464 3.33325 10.3072 3.47373 10.0572 3.72378C9.80712 3.97382 9.66665 4.31296 9.66665 4.66659C9.66665 5.02021 9.80712 5.35935 10.0572 5.60939C10.3072 5.85944 10.6464 5.99992 11 5.99992ZM11 5.33325C11.1768 5.33325 11.3464 5.26301 11.4714 5.13799C11.5964 5.01297 11.6666 4.8434 11.6666 4.66659C11.6666 4.48977 11.5964 4.32021 11.4714 4.19518C11.3464 4.07016 11.1768 3.99992 11 3.99992C10.8232 3.99992 10.6536 4.07016 10.5286 4.19518C10.4036 4.32021 10.3333 4.48977 10.3333 4.66659C10.3333 4.8434 10.4036 5.01297 10.5286 5.13799C10.6536 5.26301 10.8232 5.33325 11 5.33325Z" fill="#B59E5C"/>
<path d="M9.93333 12.6623C9.81333 12.6462 9.70327 12.587 9.62357 12.4959C9.54388 12.4047 9.49997 12.2878 9.5 12.1667V11.7547C9.86696 11.802 10.2359 11.8325 10.6057 11.846L10.4823 12.2983C10.4505 12.4152 10.3773 12.5165 10.2764 12.5834C10.1755 12.6503 10.0537 12.6784 9.93367 12.6623H9.93333ZM11.5177 12.2983L11.3937 11.8443C11.7637 11.8292 12.1328 11.7977 12.5 11.75V12.1667C12.5 12.2878 12.456 12.4047 12.3763 12.4959C12.2965 12.587 12.1864 12.6461 12.0664 12.6622C11.9464 12.6783 11.8246 12.6502 11.7237 12.5833C11.6228 12.5164 11.5496 12.4151 11.5177 12.2983Z" fill="#B59E5C"/>
</svg>
