<svg width="25" height="25" viewBox="0 0 25 25" fill="none" xmlns="http://www.w3.org/2000/svg">
<g clip-path="url(#clip0_8446_909)">
<path d="M24.5801 11.1757L22.4682 9.25134V2.87034C22.4682 2.46433 22.139 2.13513 21.733 2.13513H16.6492C16.2432 2.13513 15.914 2.46428 15.914 2.87034V3.27922L13.3634 0.955151C12.8711 0.50647 12.1287 0.506519 11.6365 0.955103L0.419817 11.1758C0.0254808 11.5351 -0.104841 12.0888 0.0878344 12.5864C0.280559 13.0839 0.749797 13.4053 1.28334 13.4053H3.0748V23.6456C3.0748 24.0516 3.40395 24.3808 3.81 24.3808H9.9581C10.3641 24.3808 10.6933 24.0516 10.6933 23.6456V17.428H14.3066V23.6456C14.3066 24.0516 14.6358 24.3808 15.0418 24.3808H21.1897C21.5957 24.3808 21.9249 24.0517 21.9248 23.6456V13.4053H23.7167C24.2502 13.4053 24.7195 13.0839 24.9122 12.5864C25.1048 12.0888 24.9746 11.5351 24.5801 11.1757ZM21.1897 11.9349C20.7837 11.9349 20.4545 12.2641 20.4545 12.6701V22.9104H15.7771V16.6928C15.7771 16.2868 15.4479 15.9576 15.0419 15.9576H9.9581C9.55209 15.9576 9.22289 16.2867 9.22289 16.6928V22.9104H4.54516V12.6701C4.54516 12.2641 4.21601 11.9349 3.80995 11.9349H1.76977L12.5 2.15759L16.1541 5.48723C16.3694 5.68333 16.6801 5.73386 16.9463 5.61633C17.2126 5.49866 17.3845 5.23489 17.3845 4.94377V3.60554H20.9978V9.57605C20.9978 9.78294 21.085 9.98015 21.2379 10.1195L23.2302 11.9349H21.1897Z" fill="#9A9B9B"/>
</g>
<defs>
<clipPath id="clip0_8446_909">
<rect width="25" height="25" fill="white"/>
</clipPath>
</defs>
</svg>
