<svg width="29" height="28" viewBox="0 0 29 28" fill="none" xmlns="http://www.w3.org/2000/svg">
<path d="M18.2797 7.29757C16.7564 6.93271 11.8057 6.93271 10.2824 7.29757C8.75914 7.29757 7.61667 8.39217 7.61667 9.48676C7.23585 10.9462 7.23585 16.4192 7.61667 17.5138C7.61667 18.6084 8.37831 19.3381 9.52078 19.703C10.6632 20.0678 16.7564 20.0678 17.8989 19.703C19.4221 19.703 20.1838 18.6084 20.5646 17.1489C20.9454 15.6895 20.5646 10.5814 20.5646 9.48676C20.5646 8.39217 19.803 7.29757 18.2797 7.29757ZM14.0906 17.5138C11.8057 17.5138 9.9016 15.6895 9.9016 13.5003C9.9016 11.3111 11.8057 9.48676 14.0906 9.48676C16.3756 9.48676 18.2797 11.3111 18.2797 13.5003C18.2797 15.6895 16.3756 17.5138 14.0906 17.5138ZM18.6605 10.2165C18.2797 10.2165 17.518 9.85163 17.518 9.1219C17.518 8.75703 17.8989 8.0273 18.6605 8.0273C19.0413 8.0273 19.803 8.39217 19.803 9.1219C19.4221 9.85163 19.0413 10.2165 18.6605 10.2165Z" fill="#B59E5C"/>
<path d="M14.0906 16.0539C15.5628 16.0539 16.7563 14.9104 16.7563 13.4999C16.7563 12.0893 15.5628 10.9458 14.0906 10.9458C12.6183 10.9458 11.4248 12.0893 11.4248 13.4999C11.4248 14.9104 12.6183 16.0539 14.0906 16.0539Z" fill="#B59E5C"/>
<path d="M23.611 0H4.95069C2.28493 0 0 2.18919 0 4.74324V22.6216C0 25.1757 2.28493 27.3649 4.95069 27.3649H23.611C26.2767 27.3649 28.5616 25.1757 28.5616 22.6216V4.74324C28.1808 2.18919 26.2767 0 23.611 0ZM22.0877 18.2432C21.7069 20.0676 20.1836 21.1622 18.2795 21.527C16.7562 21.8919 10.2822 21.8919 9.13973 21.527C7.61644 20.7973 6.47397 19.7027 6.09315 17.8784C5.71233 16.4189 5.71233 10.2162 6.09315 9.12162C6.85479 7.2973 7.99726 6.2027 9.90137 5.83784C11.4247 5.47297 15.9945 5.47297 17.8986 5.83784C19.0411 5.83784 20.1836 6.2027 20.9452 6.93243C21.7069 7.66216 22.0877 8.75676 22.4685 9.48649C22.4685 10.9459 22.4685 16.7838 22.0877 18.2432Z" fill="#B59E5C"/>
</svg>
