<svg width="15" height="15" viewBox="0 0 15 15" fill="none" xmlns="http://www.w3.org/2000/svg">
<path d="M11 0H4C3.31 0.0008125 2.75081 0.56 2.75 1.25V13.75C2.75081 14.44 3.31 14.9992 4 15H11C11.69 14.9992 12.2492 14.44 12.25 13.75V1.25C12.2492 0.56 11.69 0.0008125 11 0ZM11.75 13.75C11.75 14.1642 11.4142 14.5 11 14.5H4C3.58578 14.5 3.25 14.1642 3.25 13.75V13.5H11.75V13.75ZM11.75 13H3.25V2H11.75V13ZM11.75 1.5H3.25V1.25C3.25 0.835781 3.58578 0.5 4 0.5H11C11.4142 0.5 11.75 0.835781 11.75 1.25V1.5Z" fill="black"/>
<path d="M7 0.75H6.5C6.36194 0.75 6.25 0.861938 6.25 1C6.25 1.13806 6.36194 1.25 6.5 1.25H7C7.13806 1.25 7.25 1.13806 7.25 1C7.25 0.861938 7.13806 0.75 7 0.75Z" fill="black"/>
<path d="M8.75 0.75H7.75C7.61194 0.75 7.5 0.861938 7.5 1C7.5 1.13806 7.61194 1.25 7.75 1.25H8.75C8.88806 1.25 9 1.13806 9 1C9 0.861938 8.88806 0.75 8.75 0.75Z" fill="black"/>
<path d="M8.25 13.75H6.75C6.61194 13.75 6.5 13.8619 6.5 14C6.5 14.1381 6.61194 14.25 6.75 14.25H8.25C8.38806 14.25 8.5 14.1381 8.5 14C8.5 13.8619 8.38806 13.75 8.25 13.75Z" fill="black"/>
</svg>
