<svg width="25" height="25" viewBox="0 0 25 25" fill="none" xmlns="http://www.w3.org/2000/svg">
<path d="M22.5765 19.3262C21.9068 18.7292 21.3206 18.0448 20.8334 17.2914C20.3017 16.2516 19.9829 15.1159 19.8959 13.9512V10.5206C19.9005 8.69118 19.2369 6.92303 18.0298 5.54838C16.8227 4.17372 15.1551 3.28719 13.3404 3.05534V2.15951C13.3404 1.91363 13.2427 1.67782 13.0688 1.50396C12.895 1.3301 12.6592 1.23242 12.4133 1.23242C12.1674 1.23242 11.9316 1.3301 11.7578 1.50396C11.5839 1.67782 11.4862 1.91363 11.4862 2.15951V3.06923C9.68779 3.31779 8.04037 4.20968 6.84909 5.57972C5.65781 6.94975 5.00339 8.70509 5.00705 10.5206V13.9512C4.92008 15.1159 4.60134 16.2516 4.06955 17.2914C3.591 18.0431 3.01413 18.7274 2.35428 19.3262C2.2802 19.3912 2.22083 19.4714 2.18012 19.5612C2.13941 19.651 2.11829 19.7484 2.11816 19.847V20.7914C2.11816 20.9756 2.19133 21.1523 2.32156 21.2825C2.4518 21.4127 2.62843 21.4859 2.81261 21.4859H22.1182C22.3023 21.4859 22.479 21.4127 22.6092 21.2825C22.7394 21.1523 22.8126 20.9756 22.8126 20.7914V19.847C22.8125 19.7484 22.7914 19.651 22.7507 19.5612C22.7099 19.4714 22.6506 19.3912 22.5765 19.3262ZM3.56261 20.097C4.20873 19.4728 4.77761 18.7734 5.25705 18.0137C5.92692 16.7578 6.31777 15.372 6.40289 13.9512V10.5206C6.37535 9.70675 6.51186 8.89567 6.80431 8.13566C7.09675 7.37566 7.53914 6.68227 8.10514 6.0968C8.67114 5.51132 9.34917 5.04573 10.0988 4.72775C10.8485 4.40977 11.6545 4.2459 12.4689 4.2459C13.2832 4.2459 14.0892 4.40977 14.8389 4.72775C15.5886 5.04573 16.2666 5.51132 16.8326 6.0968C17.3986 6.68227 17.841 7.37566 18.1334 8.13566C18.4259 8.89567 18.5624 9.70675 18.5348 10.5206V13.9512C18.6199 15.372 19.0108 16.7578 19.6807 18.0137C20.1601 18.7734 20.729 19.4728 21.3751 20.097H3.56261Z" fill="#9A9B9B"/>
<path d="M12.4998 23.8055C12.9372 23.7954 13.357 23.631 13.6849 23.3412C14.0128 23.0514 14.2276 22.6551 14.2914 22.2222H10.6387C10.7043 22.6668 10.9292 23.0725 11.2715 23.3638C11.6139 23.655 12.0504 23.812 12.4998 23.8055V23.8055Z" fill="#9A9B9B"/>
</svg>
