<svg width="24" height="24" viewBox="0 0 24 24" fill="none" xmlns="http://www.w3.org/2000/svg">
<path d="M12 22.8535C12.4199 22.8438 12.8229 22.6859 13.1377 22.4078C13.4525 22.1296 13.6587 21.7491 13.72 21.3335H10.2133C10.2763 21.7604 10.4922 22.1498 10.8209 22.4294C11.1495 22.709 11.5685 22.8597 12 22.8535Z" fill="#F7A14B"/>
<path d="M21.6733 18.5531C21.0305 17.98 20.4676 17.323 20 16.5998C19.4895 15.6015 19.1835 14.5113 19.1 13.3931V10.0998C19.0973 9.69974 19.0616 9.30061 18.9933 8.90644C18.4686 8.80155 17.9643 8.61244 17.5 8.34644C17.677 8.91634 17.7669 9.50969 17.7667 10.1064V13.3998C17.8484 14.7638 18.2236 16.0941 18.8667 17.2998C19.3269 18.0291 19.8731 18.7006 20.4933 19.2998H3.41999C4.04026 18.7006 4.58639 18.0291 5.04666 17.2998C5.68973 16.0941 6.06495 14.7638 6.14666 13.3998V10.0998C6.14315 9.32823 6.29186 8.56357 6.58429 7.84959C6.87671 7.1356 7.3071 6.4863 7.8508 5.93888C8.39451 5.39146 9.04086 4.95666 9.75284 4.65938C10.4648 4.3621 11.2284 4.20818 12 4.20644C13.1292 4.20734 14.233 4.54127 15.1733 5.16644C15.0697 4.78576 15.0115 4.39414 15 3.99977V3.57977C14.3039 3.23734 13.5561 3.0121 12.7867 2.91311V2.07311C12.7867 1.83706 12.6929 1.61069 12.526 1.44378C12.3591 1.27687 12.1327 1.18311 11.8967 1.18311C11.6606 1.18311 11.4342 1.27687 11.2673 1.44378C11.1004 1.61069 11.0067 1.83706 11.0067 2.07311V2.94644C9.2838 3.18947 7.70704 4.0476 6.56747 5.36239C5.4279 6.67719 4.80248 8.35986 4.80666 10.0998V13.3931C4.72316 14.5113 4.41718 15.6015 3.90666 16.5998C3.44725 17.3213 2.89346 17.9783 2.25999 18.5531C2.18888 18.6156 2.13189 18.6925 2.0928 18.7787C2.05372 18.8649 2.03345 18.9584 2.03333 19.0531V19.9598C2.03333 20.1366 2.10356 20.3062 2.22859 20.4312C2.35361 20.5562 2.52318 20.6264 2.69999 20.6264H21.2333C21.4101 20.6264 21.5797 20.5562 21.7047 20.4312C21.8298 20.3062 21.9 20.1366 21.9 19.9598V19.0531C21.8999 18.9584 21.8796 18.8649 21.8405 18.7787C21.8014 18.6925 21.7444 18.6156 21.6733 18.5531Z" fill="#F7A14B"/>
<path d="M20 7.33317C21.841 7.33317 23.3334 5.84079 23.3334 3.99984C23.3334 2.15889 21.841 0.666504 20 0.666504C18.1591 0.666504 16.6667 2.15889 16.6667 3.99984C16.6667 5.84079 18.1591 7.33317 20 7.33317Z" fill="#F7A14B"/>
</svg>
