<svg width="21" height="17" viewBox="0 0 21 17" fill="none" xmlns="http://www.w3.org/2000/svg">
<path d="M4.82414 12.9375H8.1757C8.23156 12.9375 8.27726 12.8918 8.27726 12.8359V11.7695C8.27726 11.7136 8.23156 11.6679 8.1757 11.6679H7.66789C7.61203 11.6679 7.56632 11.7136 7.56632 11.7695V12.2265H5.43351V11.7695C5.43351 11.7136 5.38781 11.6679 5.33195 11.6679H4.82414C4.76828 11.6679 4.72257 11.7136 4.72257 11.7695V12.8359C4.72257 12.8918 4.76828 12.9375 4.82414 12.9375ZM9.14054 11.3759C9.14054 11.5106 9.19404 11.6398 9.28928 11.735C9.38451 11.8302 9.51368 11.8837 9.64836 11.8837C9.78304 11.8837 9.9122 11.8302 10.0074 11.735C10.1027 11.6398 10.1562 11.5106 10.1562 11.3759C10.1562 11.2412 10.1027 11.1121 10.0074 11.0169C9.9122 10.9216 9.78304 10.8681 9.64836 10.8681C9.51368 10.8681 9.38451 10.9216 9.28928 11.0169C9.19404 11.1121 9.14054 11.2412 9.14054 11.3759ZM12.1747 9.24819L11.8738 8.72261C11.8603 8.69944 11.8382 8.68256 11.8122 8.67566C11.7863 8.66877 11.7587 8.67241 11.7355 8.68579L11.0918 9.06157L10.0978 6.31685C10.0453 6.15307 9.94211 6.01021 9.80315 5.90889C9.66418 5.80758 9.49661 5.75304 9.32463 5.75317H3.82375C3.38322 5.75317 2.9922 6.03755 2.85636 6.45776L1.90929 9.06284L1.26437 8.68706C1.24112 8.67368 1.21352 8.67004 1.18759 8.67693C1.16166 8.68383 1.13952 8.70071 1.12599 8.72388L0.825114 9.24819C0.797184 9.29644 0.813688 9.35737 0.86193 9.3853L1.62873 9.83218L1.44464 10.34C1.42941 10.3806 1.42179 10.4238 1.42179 10.4669V14.8875C1.42179 15.0868 1.5716 15.248 1.75568 15.248H2.61388C2.77004 15.248 2.90588 15.1299 2.93888 14.9649L3.03664 14.4863H9.9632L10.061 14.9649C10.0952 15.1299 10.2298 15.248 10.386 15.248H11.2442C11.4282 15.248 11.578 15.0868 11.578 14.8875V10.4669C11.578 10.4238 11.5704 10.3806 11.5552 10.34L11.3711 9.83218L12.1366 9.3853C12.1597 9.372 12.1766 9.35018 12.1837 9.32453C12.1908 9.29889 12.1876 9.27148 12.1747 9.24819ZM10.664 10.5634V13.5722H2.33586V10.5634L2.5339 10.0175H10.4659L10.664 10.5634ZM3.71584 6.7688L3.72218 6.7523L3.72726 6.73579C3.74123 6.6939 3.77931 6.66597 3.82375 6.66597H9.25226L10.2095 9.30659H2.79289L3.71584 6.7688ZM2.84367 11.3759C2.84367 11.5106 2.89717 11.6398 2.9924 11.735C3.08764 11.8302 3.2168 11.8837 3.35148 11.8837C3.48616 11.8837 3.61532 11.8302 3.71056 11.735C3.80579 11.6398 3.85929 11.5106 3.85929 11.3759C3.85929 11.2412 3.80579 11.1121 3.71056 11.0169C3.61532 10.9216 3.48616 10.8681 3.35148 10.8681C3.2168 10.8681 3.08764 10.9216 2.9924 11.0169C2.89717 11.1121 2.84367 11.2412 2.84367 11.3759Z" fill="#B59E5C"/>
<path d="M18.0004 6.76005C17.5579 7.07926 17.0183 7.23479 16.4738 7.20005H15.2071V9.33338H13.9404V3.33338H16.5538C17.0738 3.30581 17.586 3.46942 17.9938 3.79338C18.184 3.9776 18.3311 4.20167 18.4245 4.4495C18.5178 4.69732 18.5552 4.96275 18.5338 5.22672C18.568 5.50606 18.5378 5.78956 18.4453 6.05538C18.3529 6.32121 18.2007 6.56228 18.0004 6.76005ZM17.0004 4.60005C16.8078 4.45879 16.5724 4.38817 16.3338 4.40005H15.2071V6.16672H16.3338C16.5746 6.17947 16.8117 6.10358 17.0004 5.95338C17.0848 5.8652 17.1497 5.76031 17.1911 5.64548C17.2324 5.53065 17.2492 5.40844 17.2404 5.28672C17.2559 5.16151 17.2424 5.03441 17.2007 4.91531C17.1591 4.79622 17.0906 4.68833 17.0004 4.60005ZM20.6071 2.80672C20.6436 2.72707 20.6473 2.63624 20.6173 2.5539C20.5874 2.47155 20.5262 2.40431 20.4471 2.36672L16.0004 0.300049L11.5271 2.36672C11.4873 2.3851 11.4514 2.41115 11.4217 2.44338C11.3919 2.47561 11.3688 2.51339 11.3536 2.55455C11.3384 2.59572 11.3315 2.63947 11.3333 2.68331C11.335 2.72715 11.3454 2.77021 11.3638 2.81005C11.3821 2.84988 11.4082 2.88571 11.4404 2.91547C11.4727 2.94524 11.5104 2.96837 11.5516 2.98353C11.5928 2.9987 11.6365 3.00561 11.6804 3.00387C11.7242 3.00213 11.7673 2.99177 11.8071 2.97338L16.0004 1.03338L20.1938 2.96672C20.2734 3.00323 20.3642 3.00691 20.4466 2.97697C20.5289 2.94702 20.5962 2.88586 20.6338 2.80672H20.6071Z" fill="#B59E5C"/>
</svg>
