<svg width="27" height="27" viewBox="0 0 27 27" fill="none" xmlns="http://www.w3.org/2000/svg">
<g clip-path="url(#clip0_8328_5114)">
<path d="M22.1074 16.078C20.6011 16.078 19.273 16.8046 18.4144 17.912L9.34293 14.423C9.3521 14.3039 9.37886 14.1897 9.37886 14.0683C9.37886 13.8429 9.34318 13.6271 9.31228 13.4102L18.608 9.11937C19.468 10.092 20.7103 10.7188 22.1073 10.7188C24.6928 10.7188 26.7967 8.6148 26.7967 6.0293C26.7967 3.44381 24.6928 1.33984 22.1073 1.33984C19.5218 1.33984 17.4179 3.44375 17.4179 6.02924C17.4179 6.25465 17.4536 6.47045 17.4845 6.68737L8.18876 10.9782C7.32878 10.0055 6.08649 9.37882 4.68946 9.37882C2.10397 9.37882 0 11.4828 0 14.0683C0 16.6538 2.10397 18.7577 4.68946 18.7577C6.19571 18.7577 7.52385 18.0311 8.38246 16.9238L17.4539 20.4128C17.4447 20.5319 17.418 20.646 17.418 20.7674C17.418 23.3529 19.5219 25.4569 22.1074 25.4569C24.6929 25.4569 26.7969 23.3529 26.7969 20.7674C26.7968 18.182 24.6928 16.078 22.1074 16.078Z" fill="#B59E5C"/>
</g>
<defs>
<clipPath id="clip0_8328_5114">
<rect width="26.7968" height="26.7968" fill="white"/>
</clipPath>
</defs>
</svg>
