<svg width="10" height="14" viewBox="0 0 10 14" fill="none" xmlns="http://www.w3.org/2000/svg">
<path d="M8.33301 5.00016C8.33301 4.11611 7.98182 3.26826 7.3567 2.64314C6.73158 2.01802 5.88373 1.66683 4.99967 1.66683C4.11562 1.66683 3.26777 2.01802 2.64265 2.64314C2.01753 3.26826 1.66634 4.11611 1.66634 5.00016C1.66634 6.15083 2.77301 8.35416 4.99967 11.4355C7.22634 8.35416 8.33301 6.15083 8.33301 5.00016ZM4.99967 13.6668C1.88834 9.60683 0.333008 6.71816 0.333008 5.00016C0.333008 3.76249 0.824673 2.5755 1.69984 1.70033C2.57501 0.825161 3.762 0.333496 4.99967 0.333496C6.23735 0.333496 7.42434 0.825161 8.29951 1.70033C9.17468 2.5755 9.66634 3.76249 9.66634 5.00016C9.66634 6.71816 8.11101 9.60683 4.99967 13.6668ZM4.99967 7.66683C4.29243 7.66683 3.61415 7.38588 3.11406 6.88578C2.61396 6.38568 2.33301 5.70741 2.33301 5.00016C2.33301 4.29292 2.61396 3.61464 3.11406 3.11454C3.61415 2.61445 4.29243 2.3335 4.99967 2.3335C5.70692 2.3335 6.3852 2.61445 6.88529 3.11454C7.38539 3.61464 7.66634 4.29292 7.66634 5.00016C7.66634 5.70741 7.38539 6.38568 6.88529 6.88578C6.3852 7.38588 5.70692 7.66683 4.99967 7.66683ZM4.99967 6.3335C5.3533 6.3335 5.69243 6.19302 5.94248 5.94297C6.19253 5.69292 6.33301 5.35379 6.33301 5.00016C6.33301 4.64654 6.19253 4.3074 5.94248 4.05735C5.69243 3.80731 5.3533 3.66683 4.99967 3.66683C4.64605 3.66683 4.30691 3.80731 4.05687 4.05735C3.80682 4.3074 3.66634 4.64654 3.66634 5.00016C3.66634 5.35379 3.80682 5.69292 4.05687 5.94297C4.30691 6.19302 4.64605 6.3335 4.99967 6.3335Z" fill="#808285"/>
</svg>
