<svg width="12" height="16" viewBox="0 0 12 16" fill="none" xmlns="http://www.w3.org/2000/svg">
<path d="M10.1298 2.1323H7.90549C7.50357 2.13358 7.51861 2.73262 7.90549 2.7291H10.1298V3.03534H7.90549C7.50581 3.03182 7.52053 3.63054 7.90549 3.63214H10.1298V3.9451H7.90549C7.50581 3.9451 7.52053 4.5435 7.90549 4.5419H10.1298V4.84014H7.90549C7.51413 4.84302 7.52053 5.44206 7.90549 5.44398H10.1298V5.74286H7.90549C7.51413 5.74158 7.51253 6.33966 7.90549 6.33966H10.1298V6.6379H7.90549C7.51413 6.63918 7.51253 7.2379 7.90549 7.23502H10.1298V7.54062H7.90549C7.51413 7.5371 7.51253 8.13518 7.90549 8.13742H10.1298V8.43502H7.90549C7.51413 8.4347 7.52053 9.03406 7.90549 9.03214H10.1298V14.843C10.1311 15.7285 11.4761 15.7125 11.4799 14.843V1.24462C11.4761 0.840144 11.1439 0.328784 10.5973 0.327184H7.90549C7.50357 0.327504 7.51861 0.926544 7.90549 0.923984L10.1298 0.931344V1.22894H7.90549C7.50421 1.22702 7.51925 1.82574 7.90549 1.82606H10.1298V2.1323ZM7.75253 12.4344C7.75125 11.4008 6.67989 10.2891 5.39989 11.0091V7.05582L4.57205 0.535824C4.55477 0.363344 4.40853 0.322704 4.31029 0.319824C4.20885 0.322704 4.00565 0.363344 3.98357 0.535824L3.15989 7.05582V11.0091C1.87989 10.2891 0.843093 11.4078 0.842773 12.4264C0.843093 13.3326 1.54069 14.0769 2.48469 14.0747C3.43573 14.0769 4.11989 13.2427 4.11989 12.4264V8.31982H4.43989V12.4264C4.43989 13.3403 5.14773 14.0168 5.93429 14.0597C5.92117 14.5608 6.08469 15.2757 6.39253 15.5592C6.75349 15.892 7.18325 15.4664 7.00693 15.1198C6.83669 14.7973 6.66965 14.6062 6.80533 13.9019C7.37237 13.6395 7.75125 13.0872 7.75253 12.4344ZM2.52117 13.2475C2.30539 13.2475 2.09845 13.1618 1.94587 13.0092C1.79329 12.8566 1.70757 12.6497 1.70757 12.4339C1.70757 12.2181 1.79329 12.0112 1.94587 11.8586C2.09845 11.706 2.30539 11.6203 2.52117 11.6203C2.96469 11.6229 3.32597 11.9867 3.32917 12.4344C3.32826 12.6489 3.243 12.8544 3.09181 13.0065C2.94063 13.1587 2.73565 13.2452 2.52117 13.2475ZM5.26389 12.4344C5.26464 12.2197 5.34986 12.0139 5.50112 11.8616C5.65239 11.7093 5.85754 11.6226 6.07221 11.6203C6.28696 11.6222 6.49227 11.7088 6.64356 11.8612C6.79484 12.0137 6.87989 12.2196 6.88021 12.4344C6.87988 12.6491 6.79481 12.8549 6.6435 13.0072C6.49219 13.1594 6.28687 13.2458 6.07221 13.2475C5.8576 13.2456 5.6524 13.1591 5.50109 13.0069C5.34978 12.8547 5.26456 12.649 5.26389 12.4344Z" fill="#808285"/>
</svg>
