<svg width="16" height="16" viewBox="0 0 16 16" fill="none" xmlns="http://www.w3.org/2000/svg">
<path d="M6.93439 3.1305C7.52271 3.1305 7.99964 2.65357 7.99964 2.06525C7.99964 1.47693 7.52271 1 6.93439 1C6.34607 1 5.86914 1.47693 5.86914 2.06525C5.86914 2.65357 6.34607 3.1305 6.93439 3.1305Z" fill="#B59E5C"/>
<path d="M14.379 11.2648L12.8808 11.6394L12.2815 8.84275C12.2449 8.67528 12.1523 8.5253 12.0189 8.41753C11.8856 8.30975 11.7196 8.25063 11.5481 8.24991H8.77612L8.57418 6.49991H12.0002V5.49991H8.45881L8.32962 4.38035C8.31833 4.2825 8.28788 4.18784 8.24001 4.10177C8.19213 4.01569 8.12777 3.93989 8.05061 3.87869C7.97344 3.81748 7.88497 3.77208 7.79025 3.74507C7.69554 3.71805 7.59643 3.70996 7.49859 3.72125L6.25684 3.86453L6.87837 9.24991H11.3462L12.1199 12.8604L14.6216 12.235L14.379 11.2648Z" fill="#B59E5C"/>
<path d="M7 14.0001C6.13056 13.9999 5.28819 13.6977 4.61698 13.1451C3.94578 12.5924 3.48745 11.8238 3.32042 10.9705C3.15338 10.1173 3.28802 9.2325 3.70129 8.46757C4.11457 7.70263 4.78079 7.10507 5.586 6.7771L5.46791 5.75366C3.59822 6.39251 2.25 8.16676 2.25 10.2501C2.25 12.8692 4.38084 15.0001 7 15.0001C7.81741 14.9997 8.62088 14.7884 9.33278 14.3867C10.0447 13.985 10.6409 13.4065 11.0639 12.707L10.75 11.2501C10.25 12.7501 8.83125 14.0001 7 14.0001Z" fill="#B59E5C"/>
</svg>
