<svg width="16" height="16" viewBox="0 0 16 16" fill="none" xmlns="http://www.w3.org/2000/svg">
<path d="M7.97741 10.9719C7.09366 10.9719 6.37741 11.8675 6.37741 12.9722C6.37741 14.0769 7.09391 14.9725 7.97741 14.9725C8.86091 14.9725 9.57741 14.0769 9.57741 12.9722C9.57741 11.8675 8.88241 10.9719 7.97741 10.9719ZM7.99991 5.97188C6.24366 5.97188 4.55241 6.77188 3.23741 8.22281C2.90741 8.61563 2.87491 9.24688 3.16741 9.6625C3.46241 10.075 3.96741 10.1156 4.29741 9.75C5.31991 8.62187 6.63491 8 7.99991 8C9.36491 8 10.6824 8.62125 11.7024 9.75C11.8549 9.91875 12.0449 10 12.2324 10C12.3459 10.0001 12.458 9.97005 12.5615 9.91181C12.6649 9.85356 12.7573 9.76847 12.8324 9.66219C13.1249 9.24687 13.0949 8.61562 12.7624 8.25C11.4474 6.8 9.75741 5.97188 7.99991 5.97188ZM15.7549 4.89687C13.6574 2.38375 10.9049 1 7.99991 1C5.09491 1 2.34216 2.38375 0.246008 4.89687C-0.072742 5.27969 -0.082992 5.9125 0.222558 6.31094C0.528058 6.71031 1.03431 6.72094 1.35381 6.34025C3.12741 4.15937 5.50991 3 7.99991 3C10.4899 3 12.8274 4.18656 14.6449 6.34062C14.8024 6.525 14.9999 6.61875 15.1999 6.61875C15.4101 6.61875 15.6202 6.51622 15.7772 6.31112C16.0824 5.9125 16.0724 5.25312 15.7549 4.89687Z" fill="#B59E5C"/>
</svg>
