<svg width="27" height="27" viewBox="0 0 27 27" fill="none" xmlns="http://www.w3.org/2000/svg">
<g clip-path="url(#clip0_8328_5118)">
<path d="M8.5752 7.90385H12.6146V1.70117C10.9284 2.25486 9.41191 4.62174 8.5752 7.90385Z" fill="#B59E5C"/>
<path d="M8.5752 18.896C9.41191 22.1781 10.9284 24.545 12.6146 25.0987V18.896H8.5752Z" fill="#B59E5C"/>
<path d="M26.0148 9.47412H0.785156C0.351541 9.47412 0 9.82556 0 10.2593V16.5405C0 16.9741 0.351541 17.3257 0.785156 17.3257H26.0148C26.4485 17.3257 26.8 16.9741 26.8 16.5405V10.2593C26.8 9.82556 26.4485 9.47412 26.0148 9.47412ZM25.0945 12.1808L23.5242 15.3214C23.3908 15.5875 23.1194 15.7554 22.8219 15.7554C22.5244 15.7554 22.253 15.5875 22.1195 15.3214L21.2516 13.5855L20.3836 15.3214C20.1167 15.8535 19.2458 15.8535 18.9789 15.3214L17.4745 12.3119C17.384 12.2008 17.3325 12.0613 17.3157 11.9123C17.306 12.0031 17.2862 12.0943 17.243 12.1808L15.6727 15.3214C15.5392 15.5875 15.2678 15.7554 14.9703 15.7554C14.6728 15.7554 14.4014 15.5875 14.268 15.3214L13.4 13.5855L12.532 15.3214C12.2652 15.8535 11.3942 15.8535 11.1273 15.3214L9.55703 12.1808C9.51541 12.0976 9.49751 12.0098 9.48704 11.9224C9.46731 12.0916 9.40345 12.2458 9.30012 12.3632L7.82105 15.3214C7.68767 15.5875 7.41627 15.7554 7.11875 15.7554C6.82123 15.7554 6.54983 15.5875 6.4164 15.3214L5.54844 13.5855L4.68047 15.3214C4.54705 15.5875 4.27565 15.7554 3.97812 15.7554C3.6806 15.7554 3.4092 15.5875 3.27578 15.3214L1.70546 12.1808C1.51148 11.7928 1.66867 11.3212 2.05664 11.1272C2.44383 10.9356 2.91466 11.0897 3.11016 11.4784L3.97812 13.2143L4.84609 11.4784C5.12388 10.921 5.96038 10.8976 6.25079 11.4784L7.11875 13.2143L7.98671 11.4784C8.12778 11.1962 8.42452 11.0429 8.73968 11.046C9.1455 11.0726 9.46809 11.4073 9.48516 11.8054C9.49453 11.5269 9.6414 11.2606 9.9082 11.1272C10.297 10.9355 10.767 11.0896 10.9617 11.4784L11.8297 13.2143L12.6977 11.4784C12.9645 10.9463 13.8355 10.9463 14.1023 11.4784L14.9703 13.2143L15.8383 11.4784C16.0323 11.0897 16.5038 10.9356 16.8918 11.1272C17.1563 11.2595 17.3021 11.5224 17.3139 11.7982C17.3291 11.4038 17.6096 11.0755 18.0127 11.049C18.3363 11.0414 18.6722 11.1963 18.8133 11.4784L19.6812 13.2143L20.5492 11.4784C20.8161 10.9463 21.6871 10.9463 21.9539 11.4784L22.8219 13.2143L23.6898 11.4784C23.8846 11.0897 24.3546 10.9356 24.7434 11.1272C25.1313 11.3212 25.2885 11.7928 25.0945 12.1808Z" fill="#B59E5C"/>
<path d="M14.1855 18.896V25.0987C15.8717 24.545 17.3882 22.1781 18.2249 18.896H14.1855Z" fill="#B59E5C"/>
<path d="M14.1855 1.70117V7.90385H18.2249C17.3882 4.62174 15.8717 2.25486 14.1855 1.70117Z" fill="#B59E5C"/>
<path d="M6.96217 18.896H1.28418C3.43033 23.6081 8.18256 26.7999 13.3995 26.7999C10.5632 26.7999 8.08536 23.6763 6.96217 18.896Z" fill="#B59E5C"/>
<path d="M19.8377 18.896C18.7145 23.6763 16.2367 26.7999 13.4004 26.7999C18.6173 26.7999 23.3695 23.6081 25.5157 18.896H19.8377Z" fill="#B59E5C"/>
<path d="M1.28418 7.90391H6.96217C8.08536 3.12356 10.5632 0 13.3995 0C8.18256 0 3.43033 3.19182 1.28418 7.90391Z" fill="#B59E5C"/>
<path d="M13.4004 0C16.2367 0 18.7145 3.12356 19.8377 7.90391H25.5157C23.3695 3.19182 18.6173 0 13.4004 0Z" fill="#B59E5C"/>
</g>
<defs>
<clipPath id="clip0_8328_5118">
<rect width="26.8" height="26.8" fill="white"/>
</clipPath>
</defs>
</svg>
